<svg xmlns="http://www.w3.org/2000/svg" version="1.1" xmlns:xlink="http://www.w3.org/1999/xlink" xmlns:svgjs="http://svgjs.dev/svgjs" width="1500" height="1500" viewBox="0 0 1500 1500"><rect width="1500" height="1500" fill="#ffffff"></rect><g transform="matrix(0.6666666666666666,0,0,0.6666666666666666,249.39501477759075,601.3027380962616)"><svg viewBox="0 0 396 118" data-background-color="#000000" preserveAspectRatio="xMidYMid meet" height="446" width="1500" xmlns="http://www.w3.org/2000/svg" xmlns:xlink="http://www.w3.org/1999/xlink"><g id="tight-bounds" transform="matrix(1,0,0,1,0.23983138269136361,0.012142055967956367)"><svg viewBox="0 0 395.52 117.97571588806409" height="117.97571588806409" width="395.52"><rect width="395.5205944692346" height="117.97571588806409" fill="#000000" mask="url(#b945d2e4-afb4-4169-ad50-45b4cd9e69a5)" data-fill-palette-color="tertiary"></rect><g><svg viewBox="0 0 395.52 117.97571588806409" height="117.97571588806409" width="395.52"><g><svg viewBox="0 0 395.52 117.97571588806409" height="117.97571588806409" width="395.52"><g id="textblocktransform"><svg viewBox="0 0 395.52 117.97571588806409" height="117.97571588806409" width="395.52" id="textblock"><g><svg viewBox="0 0 395.52 88.15236104420077" height="88.15236104420077" width="395.52"><path d="M394.594 18.907C392.735 9.757 387.435 7.213 387.435 7.213 371.165-2.212 350.86-0.18 332.619 1.174 300.414 1.229 268.339 3.242 236.208 4.322 168.767 4.486 100.749 1.778 33.643 8.457 27.339 10.507-6.54 8.86 1.121 20.078 3.129 24.745 10.456 29.924 10.232 34.206 11.236 34.956 12.631 33.236 13.226 34.316 15.309 37.226 18.711 35.853 21.501 37.573 17.614 42.167 20.403 45.992 23.062 49.999 18.377 51.042 12.371 50.548 9.675 54.007 9.396 56.514 7.89 56.038 6.235 55.929 5.026 55.855 2.59 56.13 2.999 56.917 4.394 59.607-1.594 61.163 2.162 63.798-0.422 66.653 3.948 69.123 3.353 72.216 3.278 72.838 3.687 73.369 4.338 73.515 7.22 74.302 3.018 75.839 3.464 77.505 33.029 88.888 65.104 81.018 95.394 86.252 103.259 82.592 97.346 87.552 100.489 86.783 102.943 85.886 104.728 89.601 107.499 87.497 107.927 86.893 107.276 85.465 108.8 85.74 109.6 85.886 110.307 85.85 110.418 85.008 110.586 83.745 109.117 84.532 108.726 83.873 112.947 80.543 111.906 88.467 115.866 88.137 115.68 87.167 114.528 85.777 116.889 85.96 119.232 84.569 119.306 83.416 121.389 86.545 121.463 87.222 121.835 87.698 122.43 88.027 128.938 84.624 135.409 89.235 142.233 87.698 146.417 86.014 150.433 88.613 154.672 87.973 156.16 87.46 157.666 86.545 159.098 88.082 176.632 88.412 195.319 87.039 211.943 88.137 256.364 86.088 303.836 88.979 350.674 86.271 361.719 85.228 373.192 83.745 383.958 82.556 383.958 82.556 392.679 79.298 392.679 64.658S394.538 51.848 394.817 40.19C395.096 28.533 396.398 28.057 394.538 18.907Z" opacity="1" fill="#000000" data-fill-palette-color="tertiary"></path><g transform="matrix(1,0,0,1,55.76832,26.068561146666667)"><svg width="283.98335999999995" viewBox="2 -36.05 288.17 36.55" height="36.01523875086745" data-palette-color="#000000"><path d="M31.65-0.4L32.35-0.4 32.35 0 27.2 0Q26 0 25.4-0.35 24.8-0.7 24.15-1.7L24.15-1.7 16.5-14.05Q15.8-15.2 15.33-15.48 14.85-15.75 13.65-15.75L13.65-15.75 9.95-15.75 9.95-0.8 14.3-0.4 14.3 0 2 0 2-0.4 6.1-0.8 6.1-33.7 2-34.1 2-34.5 14.65-34.5Q20.55-34.5 23.65-32.13 26.75-29.75 26.75-25.25L26.75-25.25Q26.75-21.75 24.85-19.5 22.95-17.25 19.35-16.4L19.35-16.4 19.4-16.4 28.55-2.1Q29.2-1.1 29.83-0.75 30.45-0.4 31.65-0.4L31.65-0.4ZM14.5-33.9L9.95-33.9 9.95-16.5 14.5-16.5Q18.5-16.5 20.43-18.63 22.35-20.75 22.35-25.15L22.35-25.15Q22.35-29.6 20.4-31.75 18.45-33.9 14.5-33.9L14.5-33.9ZM37.2 0.35Q35.3 0.35 34.07-0.98 32.85-2.3 32.85-4.4L32.85-4.4Q32.85-6.9 35.12-8.4 37.4-9.9 42.85-11L42.85-11 42.85-15.55Q42.85-18.45 42.2-19.58 41.55-20.7 39.95-20.7L39.95-20.7Q38.4-20.7 37.45-19.88 36.5-19.05 36.5-17.65L36.5-17.65 36.55-16.3Q36.55-15.05 36.07-14.33 35.6-13.6 34.75-13.6L34.75-13.6Q34-13.6 33.52-14.1 33.05-14.6 33.05-15.4L33.05-15.4Q33.05-16.6 34.22-18.03 35.4-19.45 37.25-20.4L37.25-20.4Q39.5-21.65 41.9-21.65L41.9-21.65Q43.3-21.65 44.27-21.1 45.25-20.55 45.7-19.55L45.7-19.55Q45.95-18.9 46.02-17.95 46.1-17 46.1-14.3L46.1-14.3 46.1-4.75Q46.1-2.95 46.45-2.27 46.8-1.6 47.7-1.6L47.7-1.6Q49.05-1.6 49.7-2.55L49.7-2.55 49.9-2.45Q49.3-1.2 48.3-0.53 47.3 0.15 46.15 0.15L46.15 0.15Q44.85 0.15 44-0.63 43.15-1.4 43.05-2.7L43.05-2.7 42.9-2.75Q41.75-1.3 40.25-0.48 38.75 0.35 37.2 0.35L37.2 0.35ZM39.35-1.55Q40.4-1.55 41.32-2.02 42.25-2.5 42.85-3.4L42.85-3.4 42.85-10.45Q40.25-9.8 38.82-9.15 37.4-8.5 36.8-7.6 36.2-6.7 36.2-5.35L36.2-5.35Q36.2-3.6 37.05-2.58 37.9-1.55 39.35-1.55L39.35-1.55ZM53.5-28.9Q53.5-29.95 54.17-30.63 54.85-31.3 55.9-31.3L55.9-31.3Q56.95-31.3 57.62-30.63 58.3-29.95 58.3-28.9L58.3-28.9Q58.3-27.85 57.62-27.18 56.95-26.5 55.9-26.5L55.9-26.5Q54.85-26.5 54.17-27.18 53.5-27.85 53.5-28.9L53.5-28.9ZM57.8-0.8L57.8-21.7 57.4-21.7 51.6-19.75 51.6-19.4 54.55-18.3 54.55-0.8 51.5-0.4 51.5 0 60.85 0 60.85-0.4 57.8-0.8ZM71.44-21.7Q67.94-21.7 66.02-20.15 64.09-18.6 64.09-15.8L64.09-15.8Q64.09-14.05 64.79-12.9 65.49-11.75 66.52-11.08 67.54-10.4 69.24-9.55L69.24-9.55Q71.54-8.45 72.69-7.4 73.84-6.35 73.84-4.3L73.84-4.3Q73.84-2.4 72.74-1.23 71.64-0.05 69.79-0.05L69.79-0.05Q67.74-0.05 66.47-1.73 65.19-3.4 64.69-6.9L64.69-6.9 64.09-6.9 64.34-0.4Q65.39 0 66.89 0.25 68.39 0.5 69.59 0.5L69.59 0.5Q72.89 0.5 74.84-1.28 76.79-3.05 76.79-6.1L76.79-6.1Q76.79-7.95 76.07-9.15 75.34-10.35 74.32-11.03 73.29-11.7 71.54-12.5L71.54-12.5Q69.29-13.55 68.19-14.53 67.09-15.5 67.09-17.4L67.09-17.4Q67.09-19.1 68.09-20.13 69.09-21.15 70.74-21.15L70.74-21.15Q72.54-21.15 73.62-19.8 74.69-18.45 75.39-15.45L75.39-15.45 75.94-15.45 75.94-21Q75.14-21.3 73.89-21.5 72.64-21.7 71.44-21.7L71.44-21.7ZM85.39 0.35Q83.49 0.35 82.27-0.98 81.04-2.3 81.04-4.4L81.04-4.4Q81.04-6.9 83.32-8.4 85.59-9.9 91.04-11L91.04-11 91.04-15.55Q91.04-18.45 90.39-19.58 89.74-20.7 88.14-20.7L88.14-20.7Q86.59-20.7 85.64-19.88 84.69-19.05 84.69-17.65L84.69-17.65 84.74-16.3Q84.74-15.05 84.27-14.33 83.79-13.6 82.94-13.6L82.94-13.6Q82.19-13.6 81.72-14.1 81.24-14.6 81.24-15.4L81.24-15.4Q81.24-16.6 82.42-18.03 83.59-19.45 85.44-20.4L85.44-20.4Q87.69-21.65 90.09-21.65L90.09-21.65Q91.49-21.65 92.47-21.1 93.44-20.55 93.89-19.55L93.89-19.55Q94.14-18.9 94.22-17.95 94.29-17 94.29-14.3L94.29-14.3 94.29-4.75Q94.29-2.95 94.64-2.27 94.99-1.6 95.89-1.6L95.89-1.6Q97.24-1.6 97.89-2.55L97.89-2.55 98.09-2.45Q97.49-1.2 96.49-0.53 95.49 0.15 94.34 0.15L94.34 0.15Q93.04 0.15 92.19-0.63 91.34-1.4 91.24-2.7L91.24-2.7 91.09-2.75Q89.94-1.3 88.44-0.48 86.94 0.35 85.39 0.35L85.39 0.35ZM87.54-1.55Q88.59-1.55 89.52-2.02 90.44-2.5 91.04-3.4L91.04-3.4 91.04-10.45Q88.44-9.8 87.02-9.15 85.59-8.5 84.99-7.6 84.39-6.7 84.39-5.35L84.39-5.35Q84.39-3.6 85.24-2.58 86.09-1.55 87.54-1.55L87.54-1.55ZM135.89-31.85Q138.94-29.7 140.64-25.95 142.34-22.2 142.34-17.45L142.34-17.45Q142.34-12.7 140.64-8.8 138.94-4.9 135.89-2.7L135.89-2.7Q133.94-1.3 131.41-0.65 128.89 0 125.24 0L125.24 0 111.94 0 111.94-0.4 116.04-0.8 116.04-33.7 111.94-34.1 111.94-34.5 125.24-34.5Q132.04-34.5 135.89-31.85L135.89-31.85ZM134.09-3.55Q135.69-5.6 136.61-9.38 137.54-13.15 137.54-17.7L137.54-17.7Q137.54-22.15 136.66-25.55 135.79-28.95 134.09-30.95L134.09-30.95Q132.69-32.6 130.64-33.25 128.59-33.9 124.79-33.9L124.79-33.9 119.89-33.9 119.89-0.6 124.79-0.6Q128.79-0.6 130.79-1.25 132.79-1.9 134.09-3.55L134.09-3.55ZM156.48-21.7Q159.38-21.7 161.63-20.3 163.88-18.9 165.13-16.38 166.38-13.85 166.38-10.6L166.38-10.6Q166.38-7.35 165.13-4.83 163.88-2.3 161.63-0.9 159.38 0.5 156.48 0.5L156.48 0.5Q153.58 0.5 151.33-0.9 149.08-2.3 147.83-4.83 146.58-7.35 146.58-10.6L146.58-10.6Q146.58-13.85 147.83-16.38 149.08-18.9 151.33-20.3 153.58-21.7 156.48-21.7L156.48-21.7ZM150.28-10.6Q150.28-5.6 151.93-2.8 153.58 0 156.48 0L156.48 0Q159.38 0 161.03-2.8 162.68-5.6 162.68-10.6L162.68-10.6Q162.68-15.6 161.03-18.4 159.38-21.2 156.48-21.2L156.48-21.2Q153.58-21.2 151.93-18.4 150.28-15.6 150.28-10.6L150.28-10.6ZM181.03-21.7Q182.03-21.7 182.73-21.03 183.43-20.35 183.43-19.4L183.43-19.4Q183.43-18.6 182.88-18.05 182.33-17.5 181.53-17.5L181.53-17.5Q181.03-17.5 180.71-17.73 180.38-17.95 180.03-18.4L180.03-18.4Q179.68-18.8 179.41-19 179.13-19.2 178.73-19.2L178.73-19.2Q177.93-19.2 177.11-18.25 176.28-17.3 175.93-16.05L175.93-16.05 175.93-0.8 179.93-0.4 179.93 0 169.63 0 169.63-0.4 172.68-0.8 172.68-18.3 169.73-19.4 169.73-19.75 175.38-21.7 175.78-21.7 175.78-17.3Q178.58-21.7 181.03-21.7L181.03-21.7ZM186.98-21.2L186.53-13.9 187.28-13.85Q187.78-16.4 188.98-19.7L188.98-19.7 189.28-20.5 198.08-20.5 185.68-1.1 185.68 0 201.03 0 201.33-7.7 200.63-7.75Q199.78-4.5 198.73-1.65L198.73-1.65 198.38-0.75 189.08-0.75 201.58-20.1 201.58-21.2 186.98-21.2ZM214.83 0.5Q217.68 0.5 219.98-1.05 222.28-2.6 223.58-5.3 224.88-8 224.88-11.4L224.88-11.4Q224.88-14.45 223.83-16.78 222.78-19.1 220.88-20.4 218.98-21.7 216.53-21.7L216.53-21.7Q213.03-21.7 210.38-18.85L210.38-18.85 210.38-36.05 209.98-36.05 204.18-34.1 204.18-33.75 207.13-32.65 207.13 0 207.53 0 209.03-1.35 209.23-1.35Q211.68 0.5 214.83 0.5L214.83 0.5ZM214.78 0Q212.78 0 211.58-1.38 210.38-2.75 210.38-5.05L210.38-5.05 210.38-18.1Q211.13-19.1 212.3-19.65 213.48-20.2 214.83-20.2L214.83-20.2Q217.78-20.2 219.45-17.55 221.13-14.9 221.13-10.35L221.13-10.35Q221.13-5.65 219.4-2.83 217.68 0 214.78 0L214.78 0ZM233.37 0.35Q231.47 0.35 230.25-0.98 229.02-2.3 229.02-4.4L229.02-4.4Q229.02-6.9 231.3-8.4 233.57-9.9 239.02-11L239.02-11 239.02-15.55Q239.02-18.45 238.37-19.58 237.72-20.7 236.12-20.7L236.12-20.7Q234.57-20.7 233.62-19.88 232.67-19.05 232.67-17.65L232.67-17.65 232.72-16.3Q232.72-15.05 232.25-14.33 231.77-13.6 230.92-13.6L230.92-13.6Q230.17-13.6 229.7-14.1 229.22-14.6 229.22-15.4L229.22-15.4Q229.22-16.6 230.4-18.03 231.57-19.45 233.42-20.4L233.42-20.4Q235.67-21.65 238.07-21.65L238.07-21.65Q239.47-21.65 240.45-21.1 241.42-20.55 241.87-19.55L241.87-19.55Q242.12-18.9 242.2-17.95 242.27-17 242.27-14.3L242.27-14.3 242.27-4.75Q242.27-2.95 242.62-2.27 242.97-1.6 243.87-1.6L243.87-1.6Q245.22-1.6 245.87-2.55L245.87-2.55 246.07-2.45Q245.47-1.2 244.47-0.53 243.47 0.15 242.32 0.15L242.32 0.15Q241.02 0.15 240.17-0.63 239.32-1.4 239.22-2.7L239.22-2.7 239.07-2.75Q237.92-1.3 236.42-0.48 234.92 0.35 233.37 0.35L233.37 0.35ZM235.52-1.55Q236.57-1.55 237.5-2.02 238.42-2.5 239.02-3.4L239.02-3.4 239.02-10.45Q236.42-9.8 235-9.15 233.57-8.5 232.97-7.6 232.37-6.7 232.37-5.35L232.37-5.35Q232.37-3.6 233.22-2.58 234.07-1.55 235.52-1.55L235.52-1.55ZM258.32-21.7Q255.47-21.7 253.22-20.25 250.97-18.8 249.7-16.2 248.42-13.6 248.42-10.35L248.42-10.35Q248.42-7.2 249.6-4.73 250.77-2.25 252.85-0.88 254.92 0.5 257.57 0.5L257.57 0.5Q260.32 0.5 262.35-0.95 264.37-2.4 265.37-5.05L265.37-5.05 265.57-5.6 265.37-5.7 264.92-5.1Q263.67-3.5 262.2-2.73 260.72-1.95 258.87-1.95L258.87-1.95Q255.47-1.95 253.62-4.35 251.77-6.75 251.77-11.1L251.77-11.1Q251.77-14 252.6-16.3 253.42-18.6 254.87-19.9 256.32-21.2 258.12-21.2L258.12-21.2Q259.62-21.2 260.17-20.4 260.72-19.6 261.07-18.05L261.07-18.05Q261.37-16.7 261.75-16.07 262.12-15.45 263.12-15.45L263.12-15.45Q263.97-15.45 264.47-15.98 264.97-16.5 264.97-17.35L264.97-17.35Q264.97-19.2 263.05-20.45 261.12-21.7 258.32-21.7L258.32-21.7ZM287.42-0.8L290.17-0.4 290.17 0 283.77 0 275.32-10.25 273.92-8.55 273.92-0.8 276.92-0.4 276.92 0 267.62 0 267.62-0.4 270.67-0.8 270.67-32.65 267.72-33.75 267.72-34.1 273.52-36.05 273.92-36.05 273.92-9.45 281.02-18Q281.92-19.15 281.92-19.6L281.92-19.6Q281.92-20.05 281.27-20.3 280.62-20.55 278.82-20.8L278.82-20.8 278.82-21.2 287.27-21.2 287.27-20.8Q285.27-20.45 284.14-19.88 283.02-19.3 282.02-18.1L282.02-18.1 277.52-12.8 287.42-0.8Z" opacity="1" transform="matrix(1,0,0,1,0,0)" fill="#ffffff" class="wordmark-text-0" data-fill-palette-color="quaternary" id="text-0"></path></svg></g></svg></g><g transform="matrix(1,0,0,1,115.48272533981317,96.65469454755056)"><svg viewBox="0 0 164.55454932037364 21.32102134051353" height="21.32102134051353" width="164.55454932037364"><g transform="matrix(1,0,0,1,0,0)"><svg width="164.55454932037364" viewBox="2.64 -40.6 418.83000000000004 54.27" height="21.32102134051353" data-palette-color="url(#d98c8078-ecd3-4d15-9fdb-a60991fe370e)"></svg></g></svg></g></svg></g></svg></g><g></g></svg></g><defs></defs><mask id="e0506040-92f0-4d03-b243-8333efd38349"><g id="SvgjsG1830"><svg viewBox="0 0 395.52 117.97571588806409" height="117.97571588806409" width="395.52"><g><svg viewBox="0 0 395.52 117.97571588806409" height="117.97571588806409" width="395.52"><g><svg viewBox="0 0 395.52 117.97571588806409" height="117.97571588806409" width="395.52"><g id="SvgjsG1829"><svg viewBox="0 0 395.52 117.97571588806409" height="117.97571588806409" width="395.52" id="SvgjsSvg1828"><g><svg viewBox="0 0 395.52 88.15236104420077" height="88.15236104420077" width="395.52"><path d="M394.594 18.907C392.735 9.757 387.435 7.213 387.435 7.213 371.165-2.212 350.86-0.18 332.619 1.174 300.414 1.229 268.339 3.242 236.208 4.322 168.767 4.486 100.749 1.778 33.643 8.457 27.339 10.507-6.54 8.86 1.121 20.078 3.129 24.745 10.456 29.924 10.232 34.206 11.236 34.956 12.631 33.236 13.226 34.316 15.309 37.226 18.711 35.853 21.501 37.573 17.614 42.167 20.403 45.992 23.062 49.999 18.377 51.042 12.371 50.548 9.675 54.007 9.396 56.514 7.89 56.038 6.235 55.929 5.026 55.855 2.59 56.13 2.999 56.917 4.394 59.607-1.594 61.163 2.162 63.798-0.422 66.653 3.948 69.123 3.353 72.216 3.278 72.838 3.687 73.369 4.338 73.515 7.22 74.302 3.018 75.839 3.464 77.505 33.029 88.888 65.104 81.018 95.394 86.252 103.259 82.592 97.346 87.552 100.489 86.783 102.943 85.886 104.728 89.601 107.499 87.497 107.927 86.893 107.276 85.465 108.8 85.74 109.6 85.886 110.307 85.85 110.418 85.008 110.586 83.745 109.117 84.532 108.726 83.873 112.947 80.543 111.906 88.467 115.866 88.137 115.68 87.167 114.528 85.777 116.889 85.96 119.232 84.569 119.306 83.416 121.389 86.545 121.463 87.222 121.835 87.698 122.43 88.027 128.938 84.624 135.409 89.235 142.233 87.698 146.417 86.014 150.433 88.613 154.672 87.973 156.16 87.46 157.666 86.545 159.098 88.082 176.632 88.412 195.319 87.039 211.943 88.137 256.364 86.088 303.836 88.979 350.674 86.271 361.719 85.228 373.192 83.745 383.958 82.556 383.958 82.556 392.679 79.298 392.679 64.658S394.538 51.848 394.817 40.19C395.096 28.533 396.398 28.057 394.538 18.907Z" opacity="1" fill="black"></path><g transform="matrix(1,0,0,1,55.76832,26.068561146666667)"><svg width="283.98335999999995" viewBox="2 -36.05 288.17 36.55" height="36.01523875086745" data-palette-color="#000000"><path d="M31.65-0.4L32.35-0.4 32.35 0 27.2 0Q26 0 25.4-0.35 24.8-0.7 24.15-1.7L24.15-1.7 16.5-14.05Q15.8-15.2 15.33-15.48 14.85-15.75 13.65-15.75L13.65-15.75 9.95-15.75 9.95-0.8 14.3-0.4 14.3 0 2 0 2-0.4 6.1-0.8 6.1-33.7 2-34.1 2-34.5 14.65-34.5Q20.55-34.5 23.65-32.13 26.75-29.75 26.75-25.25L26.75-25.25Q26.75-21.75 24.85-19.5 22.95-17.25 19.35-16.4L19.35-16.4 19.4-16.4 28.55-2.1Q29.2-1.1 29.83-0.75 30.45-0.4 31.65-0.4L31.65-0.4ZM14.5-33.9L9.95-33.9 9.95-16.5 14.5-16.5Q18.5-16.5 20.43-18.63 22.35-20.75 22.35-25.15L22.35-25.15Q22.35-29.6 20.4-31.75 18.45-33.9 14.5-33.9L14.5-33.9ZM37.2 0.35Q35.3 0.35 34.07-0.98 32.85-2.3 32.85-4.4L32.85-4.4Q32.85-6.9 35.12-8.4 37.4-9.9 42.85-11L42.85-11 42.85-15.55Q42.85-18.45 42.2-19.58 41.55-20.7 39.95-20.7L39.95-20.7Q38.4-20.7 37.45-19.88 36.5-19.05 36.5-17.65L36.5-17.65 36.55-16.3Q36.55-15.05 36.07-14.33 35.6-13.6 34.75-13.6L34.75-13.6Q34-13.6 33.52-14.1 33.05-14.6 33.05-15.4L33.05-15.4Q33.05-16.6 34.22-18.03 35.4-19.45 37.25-20.4L37.25-20.4Q39.5-21.65 41.9-21.65L41.9-21.65Q43.3-21.65 44.27-21.1 45.25-20.55 45.7-19.55L45.7-19.55Q45.95-18.9 46.02-17.95 46.1-17 46.1-14.3L46.1-14.3 46.1-4.75Q46.1-2.95 46.45-2.27 46.8-1.6 47.7-1.6L47.7-1.6Q49.05-1.6 49.7-2.55L49.7-2.55 49.9-2.45Q49.3-1.2 48.3-0.53 47.3 0.15 46.15 0.15L46.15 0.15Q44.85 0.15 44-0.63 43.15-1.4 43.05-2.7L43.05-2.7 42.9-2.75Q41.75-1.3 40.25-0.48 38.75 0.35 37.2 0.35L37.2 0.35ZM39.35-1.55Q40.4-1.55 41.32-2.02 42.25-2.5 42.85-3.4L42.85-3.4 42.85-10.45Q40.25-9.8 38.82-9.15 37.4-8.5 36.8-7.6 36.2-6.7 36.2-5.35L36.2-5.35Q36.2-3.6 37.05-2.58 37.9-1.55 39.35-1.55L39.35-1.55ZM53.5-28.9Q53.5-29.95 54.17-30.63 54.85-31.3 55.9-31.3L55.9-31.3Q56.95-31.3 57.62-30.63 58.3-29.95 58.3-28.9L58.3-28.9Q58.3-27.85 57.62-27.18 56.95-26.5 55.9-26.5L55.9-26.5Q54.85-26.5 54.17-27.18 53.5-27.85 53.5-28.9L53.5-28.9ZM57.8-0.8L57.8-21.7 57.4-21.7 51.6-19.75 51.6-19.4 54.55-18.3 54.55-0.8 51.5-0.4 51.5 0 60.85 0 60.85-0.4 57.8-0.8ZM71.44-21.7Q67.94-21.7 66.02-20.15 64.09-18.6 64.09-15.8L64.09-15.8Q64.09-14.05 64.79-12.9 65.49-11.75 66.52-11.08 67.54-10.4 69.24-9.55L69.24-9.55Q71.54-8.45 72.69-7.4 73.84-6.35 73.84-4.3L73.84-4.3Q73.84-2.4 72.74-1.23 71.64-0.05 69.79-0.05L69.79-0.05Q67.74-0.05 66.47-1.73 65.19-3.4 64.69-6.9L64.69-6.9 64.09-6.9 64.34-0.4Q65.39 0 66.89 0.25 68.39 0.5 69.59 0.5L69.59 0.5Q72.89 0.5 74.84-1.28 76.79-3.05 76.79-6.1L76.79-6.1Q76.79-7.95 76.07-9.15 75.34-10.35 74.32-11.03 73.29-11.7 71.54-12.5L71.54-12.5Q69.29-13.55 68.19-14.53 67.09-15.5 67.09-17.4L67.09-17.4Q67.09-19.1 68.09-20.13 69.09-21.15 70.74-21.15L70.74-21.15Q72.54-21.15 73.62-19.8 74.69-18.45 75.39-15.45L75.39-15.45 75.94-15.45 75.94-21Q75.14-21.3 73.89-21.5 72.64-21.7 71.44-21.7L71.44-21.7ZM85.39 0.35Q83.49 0.35 82.27-0.98 81.04-2.3 81.04-4.4L81.04-4.4Q81.04-6.9 83.32-8.4 85.59-9.9 91.04-11L91.04-11 91.04-15.55Q91.04-18.45 90.39-19.58 89.74-20.7 88.14-20.7L88.14-20.7Q86.59-20.7 85.64-19.88 84.69-19.05 84.69-17.65L84.69-17.65 84.74-16.3Q84.74-15.05 84.27-14.33 83.79-13.6 82.94-13.6L82.94-13.6Q82.19-13.6 81.72-14.1 81.24-14.6 81.24-15.4L81.24-15.4Q81.24-16.6 82.42-18.03 83.59-19.45 85.44-20.4L85.44-20.4Q87.69-21.65 90.09-21.65L90.09-21.65Q91.49-21.65 92.47-21.1 93.44-20.55 93.89-19.55L93.89-19.55Q94.14-18.9 94.22-17.95 94.29-17 94.29-14.3L94.29-14.3 94.29-4.75Q94.29-2.95 94.64-2.27 94.99-1.6 95.89-1.6L95.89-1.6Q97.24-1.6 97.89-2.55L97.89-2.55 98.09-2.45Q97.49-1.2 96.49-0.53 95.49 0.15 94.34 0.15L94.34 0.15Q93.04 0.15 92.19-0.63 91.34-1.4 91.24-2.7L91.24-2.7 91.09-2.75Q89.94-1.3 88.44-0.48 86.94 0.35 85.39 0.35L85.39 0.35ZM87.54-1.55Q88.59-1.55 89.52-2.02 90.44-2.5 91.04-3.4L91.04-3.4 91.04-10.45Q88.44-9.8 87.02-9.15 85.59-8.5 84.99-7.6 84.39-6.7 84.39-5.35L84.39-5.35Q84.39-3.6 85.24-2.58 86.09-1.55 87.54-1.55L87.54-1.55ZM135.89-31.85Q138.94-29.7 140.64-25.95 142.34-22.2 142.34-17.45L142.34-17.45Q142.34-12.7 140.64-8.8 138.94-4.9 135.89-2.7L135.89-2.7Q133.94-1.3 131.41-0.65 128.89 0 125.24 0L125.24 0 111.94 0 111.94-0.4 116.04-0.8 116.04-33.7 111.94-34.1 111.94-34.5 125.24-34.5Q132.04-34.5 135.89-31.85L135.89-31.85ZM134.09-3.55Q135.69-5.6 136.61-9.38 137.54-13.15 137.54-17.7L137.54-17.7Q137.54-22.15 136.66-25.55 135.79-28.95 134.09-30.95L134.09-30.95Q132.69-32.6 130.64-33.25 128.59-33.9 124.79-33.9L124.79-33.9 119.89-33.9 119.89-0.6 124.79-0.6Q128.79-0.6 130.79-1.25 132.79-1.9 134.09-3.55L134.09-3.55ZM156.48-21.7Q159.38-21.7 161.63-20.3 163.88-18.9 165.13-16.38 166.38-13.85 166.38-10.6L166.38-10.6Q166.38-7.35 165.13-4.83 163.88-2.3 161.63-0.9 159.38 0.5 156.48 0.5L156.48 0.5Q153.58 0.5 151.33-0.9 149.08-2.3 147.83-4.83 146.58-7.35 146.58-10.6L146.58-10.6Q146.58-13.85 147.83-16.38 149.08-18.9 151.33-20.3 153.58-21.7 156.48-21.7L156.48-21.7ZM150.28-10.6Q150.28-5.6 151.93-2.8 153.58 0 156.48 0L156.48 0Q159.38 0 161.03-2.8 162.68-5.6 162.68-10.6L162.68-10.6Q162.68-15.6 161.03-18.4 159.38-21.2 156.48-21.2L156.48-21.2Q153.58-21.2 151.93-18.4 150.28-15.6 150.28-10.6L150.28-10.6ZM181.03-21.7Q182.03-21.7 182.73-21.03 183.43-20.35 183.43-19.4L183.43-19.4Q183.43-18.6 182.88-18.05 182.33-17.5 181.53-17.5L181.53-17.5Q181.03-17.5 180.71-17.73 180.38-17.95 180.03-18.4L180.03-18.4Q179.68-18.8 179.41-19 179.13-19.2 178.73-19.2L178.73-19.2Q177.93-19.2 177.11-18.25 176.28-17.3 175.93-16.05L175.93-16.05 175.93-0.8 179.93-0.4 179.93 0 169.63 0 169.63-0.4 172.68-0.8 172.68-18.3 169.73-19.4 169.73-19.75 175.38-21.7 175.78-21.7 175.78-17.3Q178.58-21.7 181.03-21.7L181.03-21.7ZM186.98-21.2L186.53-13.9 187.28-13.85Q187.78-16.4 188.98-19.7L188.98-19.7 189.28-20.5 198.08-20.5 185.68-1.1 185.68 0 201.03 0 201.33-7.7 200.63-7.75Q199.78-4.5 198.73-1.65L198.73-1.65 198.38-0.75 189.08-0.75 201.58-20.1 201.58-21.2 186.98-21.2ZM214.83 0.5Q217.68 0.5 219.98-1.05 222.28-2.6 223.58-5.3 224.88-8 224.88-11.4L224.88-11.4Q224.88-14.45 223.83-16.78 222.78-19.1 220.88-20.4 218.98-21.7 216.53-21.7L216.53-21.7Q213.03-21.7 210.38-18.85L210.38-18.85 210.38-36.05 209.98-36.05 204.18-34.1 204.18-33.75 207.13-32.65 207.13 0 207.53 0 209.03-1.35 209.23-1.35Q211.68 0.5 214.83 0.5L214.83 0.5ZM214.78 0Q212.78 0 211.58-1.38 210.38-2.75 210.38-5.05L210.38-5.05 210.38-18.1Q211.13-19.1 212.3-19.65 213.48-20.2 214.83-20.2L214.83-20.2Q217.78-20.2 219.45-17.55 221.13-14.9 221.13-10.35L221.13-10.35Q221.13-5.65 219.4-2.83 217.68 0 214.78 0L214.78 0ZM233.37 0.35Q231.47 0.35 230.25-0.98 229.02-2.3 229.02-4.4L229.02-4.4Q229.02-6.9 231.3-8.4 233.57-9.9 239.02-11L239.02-11 239.02-15.55Q239.02-18.45 238.37-19.58 237.72-20.7 236.12-20.7L236.12-20.7Q234.57-20.7 233.62-19.88 232.67-19.05 232.67-17.65L232.67-17.65 232.72-16.3Q232.72-15.05 232.25-14.33 231.77-13.6 230.92-13.6L230.92-13.6Q230.17-13.6 229.7-14.1 229.22-14.6 229.22-15.4L229.22-15.4Q229.22-16.6 230.4-18.03 231.57-19.45 233.42-20.4L233.42-20.4Q235.67-21.65 238.07-21.65L238.07-21.65Q239.47-21.65 240.45-21.1 241.42-20.55 241.87-19.55L241.87-19.55Q242.12-18.9 242.2-17.95 242.27-17 242.27-14.3L242.27-14.3 242.27-4.75Q242.27-2.95 242.62-2.27 242.97-1.6 243.87-1.6L243.87-1.6Q245.22-1.6 245.87-2.55L245.87-2.55 246.07-2.45Q245.47-1.2 244.47-0.53 243.47 0.15 242.32 0.15L242.32 0.15Q241.02 0.15 240.17-0.63 239.32-1.4 239.22-2.7L239.22-2.7 239.07-2.75Q237.92-1.3 236.42-0.48 234.92 0.35 233.37 0.35L233.37 0.35ZM235.52-1.55Q236.57-1.55 237.5-2.02 238.42-2.5 239.02-3.4L239.02-3.4 239.02-10.45Q236.42-9.8 235-9.15 233.57-8.5 232.97-7.6 232.37-6.7 232.37-5.35L232.37-5.35Q232.37-3.6 233.22-2.58 234.07-1.55 235.52-1.55L235.52-1.55ZM258.32-21.7Q255.47-21.7 253.22-20.25 250.97-18.8 249.7-16.2 248.42-13.6 248.42-10.35L248.42-10.35Q248.42-7.2 249.6-4.73 250.77-2.25 252.85-0.88 254.92 0.5 257.57 0.5L257.57 0.5Q260.32 0.5 262.35-0.95 264.37-2.4 265.37-5.05L265.37-5.05 265.57-5.6 265.37-5.7 264.92-5.1Q263.67-3.5 262.2-2.73 260.72-1.95 258.87-1.95L258.87-1.95Q255.47-1.95 253.62-4.35 251.77-6.75 251.77-11.1L251.77-11.1Q251.77-14 252.6-16.3 253.42-18.6 254.87-19.9 256.32-21.2 258.12-21.2L258.12-21.2Q259.62-21.2 260.17-20.4 260.72-19.6 261.07-18.05L261.07-18.05Q261.37-16.7 261.75-16.07 262.12-15.45 263.12-15.45L263.12-15.45Q263.97-15.45 264.47-15.98 264.97-16.5 264.97-17.35L264.97-17.35Q264.97-19.2 263.05-20.45 261.12-21.7 258.32-21.7L258.32-21.7ZM287.42-0.8L290.17-0.4 290.17 0 283.77 0 275.32-10.25 273.92-8.55 273.92-0.8 276.92-0.4 276.92 0 267.62 0 267.62-0.4 270.67-0.8 270.67-32.65 267.72-33.75 267.72-34.1 273.52-36.05 273.92-36.05 273.92-9.45 281.02-18Q281.92-19.15 281.92-19.6L281.92-19.6Q281.92-20.05 281.27-20.3 280.62-20.55 278.82-20.8L278.82-20.8 278.82-21.2 287.27-21.2 287.27-20.8Q285.27-20.45 284.14-19.88 283.02-19.3 282.02-18.1L282.02-18.1 277.52-12.8 287.42-0.8Z" opacity="1" transform="matrix(1,0,0,1,0,0)" fill="black" class="wordmark-text-0" id="SvgjsPath1827"></path></svg></g></svg></g><g transform="matrix(1,0,0,1,115.48272533981317,96.65469454755056)"><svg viewBox="0 0 164.55454932037364 21.32102134051353" height="21.32102134051353" width="164.55454932037364"><g transform="matrix(1,0,0,1,0,0)"><svg width="164.55454932037364" viewBox="2.64 -40.6 418.83000000000004 54.27" height="21.32102134051353" data-palette-color="url(#d98c8078-ecd3-4d15-9fdb-a60991fe370e)"><path d="M14.4-2.34L14.4-2.34Q16.21-2.34 17.69-2.7 19.17-3.05 20.24-3.81L20.24-3.81Q22.53-5.4 22.53-8.45L22.53-8.45Q22.53-11.04 20.85-12.7L20.85-12.7Q19.07-14.4 15.08-16.15 11.08-17.9 9-19.27 6.91-20.65 5.71-22.07L5.71-22.07Q3.54-24.56 3.54-28.1L3.54-28.1Q3.54-32.2 7.08-34.86L7.08-34.86Q10.38-37.38 15.06-37.38L15.06-37.38Q18.75-37.38 22.44-36.04L22.44-36.04Q23.97-35.42 25.22-34.69L25.22-34.69 24.37-28.17 22.31-28.17Q22.31-31.54 20.48-33.07 18.65-34.59 15.19-34.59L15.19-34.59Q10.4-34.59 8.64-31.47L8.64-31.47Q8.08-30.44 8.08-29.17 8.08-27.91 8.45-26.89 8.81-25.88 9.86-24.9L9.86-24.9Q11.91-22.92 17.58-20.56L17.58-20.56Q25.49-17.19 26.81-12.6L26.81-12.6Q27.2-11.16 27.2-9.53 27.2-7.91 26.65-6.46 26.1-5 25.15-3.87 24.19-2.73 22.94-1.9 21.68-1.07 20.26-0.54L20.26-0.54Q13.99 1.9 7.08-0.93L7.08-0.93Q4.57-1.98 2.64-3.49L2.64-3.49 3.66-10.5 5.74-10.5Q5.74-5.59 8.84-3.66L8.84-3.66Q10.96-2.34 14.4-2.34ZM31.76-11.87L31.76-11.87Q31.76-14.67 32.72-17.09 33.69-19.51 35.35-21.19L35.35-21.19Q38.77-24.73 43.77-24.73L43.77-24.73Q49.58-24.73 52.85-21.29L52.85-21.29Q55.95-17.99 55.95-12.67L55.95-12.67Q55.95-6.74 52.44-3.03L52.44-3.03Q49.02 0.56 43.99 0.56L43.99 0.56Q38.25 0.56 34.91-2.98L34.91-2.98Q31.76-6.3 31.76-11.87ZM38.01-19.15Q37.03-17.9 36.53-16.21 36.03-14.53 36.03-12.56 36.03-10.6 36.48-8.73 36.94-6.86 37.89-5.42L37.89-5.42Q39.99-2.29 43.94-2.29L43.94-2.29Q47.65-2.29 49.7-4.74L49.7-4.74Q51.73-7.13 51.73-11.21L51.73-11.21Q51.73-18.43 47.6-20.92L47.6-20.92Q46.07-21.85 43.97-21.85 41.87-21.85 40.43-21.13 38.99-20.41 38.01-19.15ZM66.91-21.29L66.91-2.69 72.21-2.03 72.21 0 59.59 0 59.59-2.03 62.96-2.59 62.96-21.39 59.59-21.39 59.59-23.41 62.96-24.15 62.96-29.32Q62.96-33.15 65.33-36.62L65.33-36.62Q68.04-40.6 72.43-40.6L72.43-40.6Q75.24-40.6 77.02-39.48L77.02-39.48Q77.8-38.99 78.19-38.35L78.19-38.35 76.53-34.03 74.95-34.03Q74.95-36.47 73.24-37.35L73.24-37.35Q72.63-37.7 71.69-37.7 70.75-37.7 69.88-37.29 69.01-36.89 68.35-36.06L68.35-36.06Q66.91-34.25 66.91-31.01L66.91-31.01 66.91-24.15 74.34-24.15 74.34-21.29 66.91-21.29ZM83.46-21.29L83.46-7.47Q83.46-2.59 87.42-2.59L87.42-2.59Q89.49-2.59 91.45-4.3L91.45-4.3 92.77-2.69Q90.69-0.98 88.93-0.21 87.18 0.56 85.83 0.56 84.49 0.56 83.23-0.02 81.97-0.61 81.14-1.71L81.14-1.71Q79.51-3.83 79.51-7.74L79.51-7.74 79.51-21.29 76.41-21.29 76.41-23.41 79.51-24.15 79.51-27.42 82.39-30.3 83.46-30.3 83.46-24.15 91.52-24.15 91.52-21.29 83.46-21.29ZM131.07-21.56L122.55 0 119.16 0 113-17.26 106.63 0 103.24 0 94.67-21.56 91.88-22.12 91.88-24.15 101.97-24.15 101.97-22.12 99.14-21.56 105.82-3.96 111.59-20.36 110.88-21.56 107.78-22.12 107.78-24.15 118.42-24.15 118.42-22.12 115.42-21.56 121.74-3.96Q121.74-3.96 128.14-21.68L128.14-21.68 125.31-22.12 125.31-24.15 133.8-24.15 133.8-22.12 131.07-21.56ZM158.12-3.56L158.56-1.27Q154.99 0.56 153.41 0.56L153.41 0.56Q149.84 0.56 149.84-2.47L149.84-2.47 149.84-3.22Q149.5-2.71 147.97-1.73 146.45-0.76 145.59-0.37L145.59-0.37Q143.57 0.56 142.52 0.56 141.47 0.56 140.78 0.48 140.1 0.39 139.37 0.15 138.63-0.1 137.93-0.54 137.22-0.98 136.66-1.68L136.66-1.68Q135.41-3.25 135.41-5.76L135.41-5.76Q135.41-9.23 137.88-10.6L137.88-10.6Q139.44-11.5 141.19-11.72 142.93-11.94 144.37-12.06L144.37-12.06Q147.11-12.3 149.84-12.35L149.84-12.35 149.84-17.48Q149.84-19.6 149.3-20.31L149.3-20.31Q148.4-21.56 146.5-21.56L146.5-21.56Q142.25-21.56 138.15-18.8L138.15-18.8 136.73-20.92Q142.44-24.73 146.96-24.73L146.96-24.73Q150.89-24.73 152.53-22.56L152.53-22.56Q153.8-20.87 153.8-17.77L153.8-17.77 153.8-4.93Q153.8-3.13 154.48-2.88L154.48-2.88Q154.72-2.81 155.11-2.81L155.11-2.81Q156.09-2.81 158.12-3.56L158.12-3.56ZM149.84-5.47L149.84-10.3Q142.91-10.03 140.95-8.91L140.95-8.91Q139.47-8.06 139.47-6.15L139.47-6.15Q139.47-3.39 141.59-2.76L141.59-2.76Q142.18-2.59 143.02-2.59 143.86-2.59 144.98-2.93 146.11-3.27 147.06-3.76L147.06-3.76Q148.86-4.64 149.84-5.47L149.84-5.47ZM162.85-2.59L162.85-20.36 159.73-20.92 159.73-22.95 166.81-24.73 166.81-18.51Q172.42-24.73 175.25-24.73L175.25-24.73Q177.57-24.73 179.53-22.88L179.53-22.88 178.26-18.92 177.11-18.92Q177.11-20.12 175.28-20.7L175.28-20.7Q174.77-20.85 174.25-20.85L174.25-20.85Q171.66-20.85 166.81-15.65L166.81-15.65 166.81-2.59 171.64-2.03 171.64 0 159.73 0 159.73-2.03 162.85-2.59ZM201.06-5.59L201.06-5.59 202.45-4Q198.57-0.51 194.93 0.37L194.93 0.37Q194.12 0.56 193.34 0.56L193.34 0.56Q187.97 0.56 184.6-2.83L184.6-2.83Q181.26-6.15 181.26-11.5L181.26-11.5Q181.26-16.82 184.41-20.61L184.41-20.61Q187.87-24.73 193.42-24.73L193.42-24.73Q197.25-24.73 199.88-21.97L199.88-21.97Q202.69-19.09 202.69-14.48L202.69-14.48 201.55-13.45 185.63-12.3Q185.68-7.86 188.51-5.2L188.51-5.2Q191.05-2.86 194.42-2.86 197.79-2.86 201.06-5.59ZM185.8-14.6L185.8-14.6 198.35-15.75Q198.18-19.8 195.22-21.31L195.22-21.31Q194.17-21.85 192.54-21.85 190.9-21.85 189.62-21.04 188.34-20.24 187.51-19.09L187.51-19.09Q185.92-16.92 185.8-14.6ZM241.31-15.09L240.58-17.65 231.59-17.65 231.59-2.93 245.19-2.93 246.95-7.25 248.81-7.25 248 0 223.29 0 223.29-2.08 227-2.64 227-34.18 223.29-34.74 223.29-36.82 246.93-36.82 247.49-29.57 245.34-29.57 244.02-33.86 231.59-33.86 231.59-20.58 240.58-20.58 241.31-23.17 243.04-23.17 243.04-15.09 241.31-15.09ZM266.89-21.56L266.89-21.56Q263.16-21.56 259.4-18.97L259.4-18.97 259.4-2.59 262.5-2.03 262.5 0 252.25 0 252.25-2.03 255.42-2.59 255.42-20.36 252.25-20.92 252.25-22.95 258.98-24.73 258.98-21.56Q263.92-24.73 268.14-24.73L268.14-24.73Q273.22-24.73 274.76-20.51L274.76-20.51Q275.27-19.09 275.27-17.19L275.27-17.19 275.27-2.59 278.37-2.03 278.37 0 268.14 0 268.14-2.03 271.29-2.59 271.29-16.72Q271.29-21.56 266.89-21.56ZM305.47-20.58L302.29-20.58Q303.44-18.73 303.44-15.97L303.44-15.97Q303.44-12.08 299.53-9.08L299.53-9.08Q297.82-7.76 295.53-6.88L295.53-6.88 291.79-5.47Q289.11-4.47 288.75-4.09 288.4-3.71 288.4-3.48 288.4-3.25 288.64-3.03 288.89-2.81 289.45-2.61L289.45-2.61Q290.79-2.15 293.21-2.15 295.63-2.15 297.73-1.89 299.83-1.64 301.44-0.93L301.44-0.93Q304.95 0.66 304.95 4.49L304.95 4.49Q304.95 7.08 302.93 9.3L302.93 9.3Q300.12 12.35 294.97 13.38L294.97 13.38Q293.43 13.67 291.57 13.67 289.72 13.67 287.79 13.28 285.86 12.89 284.42 12.06L284.42 12.06Q281.37 10.33 281.37 6.86L281.37 6.86Q281.37 4.17 283.64 2.73L283.64 2.73 285.23 1.78Q285.89 1.44 286.7 1.27 287.52 1.1 288.35 0.88L288.35 0.88Q285.71 0.37 284.71-1.22L284.71-1.22Q284.37-1.78 284.37-2.4 284.37-3.03 284.62-3.47 284.86-3.91 285.49-4.35 286.13-4.79 287.25-5.32L287.25-5.32 290.16-6.69Q287.86-7.13 285.86-8.81L285.86-8.81Q283.1-11.13 283.1-15.36L283.1-15.36Q283.1-19.41 286.67-22.22L286.67-22.22Q289.82-24.73 293.6-24.73 297.38-24.73 300.14-22.95L300.14-22.95Q301.9-24.17 305.95-24.68L305.95-24.68 306.61-23.93 305.47-20.58ZM285.79 5.46Q285.64 6.13 285.64 7.15 285.64 8.18 286.4 9.05 287.16 9.91 288.33 10.38L288.33 10.38Q290.23 11.13 292.64 11.13 295.04 11.13 296.31 10.74 297.58 10.35 298.53 9.62L298.53 9.62Q300.68 8.01 300.68 5.42L300.68 5.42Q300.68 2.17 296.09 1.76L296.09 1.76Q294.75 1.64 293.28 1.64L293.28 1.64Q289.08 1.64 286.62 4.1L286.62 4.1Q285.93 4.79 285.79 5.46ZM287.64-18.95L287.64-18.95Q287.13-17.75 287.13-16.03 287.13-14.31 287.64-13.04 288.16-11.77 289.04-10.89L289.04-10.89Q290.82-9.11 293.62-9.11L293.62-9.11Q297.29-9.11 298.85-12.18L298.85-12.18Q299.44-13.33 299.44-15.03 299.44-16.72 298.92-18.04 298.41-19.36 297.53-20.29L297.53-20.29Q295.7-22.22 292.94-22.22L292.94-22.22Q289.04-22.22 287.64-18.95ZM317.23-24.73L317.23-2.59 320.36-2.03 320.36 0 310.1 0 310.1-2.03 313.28-2.59 313.28-20.36 310.1-20.92 310.1-22.95 317.23-24.73ZM313.14-32.19Q312.74-32.62 312.49-33.15 312.25-33.69 312.25-34.22 312.25-34.74 312.49-35.27 312.74-35.79 313.13-36.23L313.13-36.23Q314.03-37.21 314.78-37.21 315.52-37.21 316.05-36.94 316.57-36.67 316.99-36.23L316.99-36.23Q317.89-35.23 317.89-34.46 317.89-33.69 317.63-33.15 317.38-32.62 316.99-32.18L316.99-32.18Q316.06-31.23 315.29-31.23 314.52-31.23 314.03-31.49 313.54-31.76 313.14-32.19ZM337.81-21.56L337.81-21.56Q334.07-21.56 330.31-18.97L330.31-18.97 330.31-2.59 333.41-2.03 333.41 0 323.16 0 323.16-2.03 326.33-2.59 326.33-20.36 323.16-20.92 323.16-22.95 329.9-24.73 329.9-21.56Q334.83-24.73 339.05-24.73L339.05-24.73Q344.13-24.73 345.67-20.51L345.67-20.51Q346.18-19.09 346.18-17.19L346.18-17.19 346.18-2.59 349.28-2.03 349.28 0 339.05 0 339.05-2.03 342.2-2.59 342.2-16.72Q342.2-21.56 337.81-21.56ZM372.13-5.59L372.13-5.59 373.52-4Q369.64-0.51 366.01 0.37L366.01 0.37Q365.2 0.56 364.42 0.56L364.42 0.56Q359.05 0.56 355.68-2.83L355.68-2.83Q352.33-6.15 352.33-11.5L352.33-11.5Q352.33-16.82 355.48-20.61L355.48-20.61Q358.95-24.73 364.49-24.73L364.49-24.73Q368.32-24.73 370.96-21.97L370.96-21.97Q373.77-19.09 373.77-14.48L373.77-14.48 372.62-13.45 356.7-12.3Q356.75-7.86 359.58-5.2L359.58-5.2Q362.12-2.86 365.49-2.86 368.86-2.86 372.13-5.59ZM356.87-14.6L356.87-14.6 369.42-15.75Q369.25-19.8 366.3-21.31L366.3-21.31Q365.25-21.85 363.61-21.85 361.98-21.85 360.69-21.04 359.41-20.24 358.58-19.09L358.58-19.09Q357-16.92 356.87-14.6ZM397.15-5.59L397.15-5.59 398.55-4Q394.66-0.51 391.03 0.37L391.03 0.37Q390.22 0.56 389.44 0.56L389.44 0.56Q384.07 0.56 380.7-2.83L380.7-2.83Q377.36-6.15 377.36-11.5L377.36-11.5Q377.36-16.82 380.5-20.61L380.5-20.61Q383.97-24.73 389.51-24.73L389.51-24.73Q393.35-24.73 395.98-21.97L395.98-21.97Q398.79-19.09 398.79-14.48L398.79-14.48 397.64-13.45 381.73-12.3Q381.77-7.86 384.61-5.2L384.61-5.2Q387.15-2.86 390.51-2.86 393.88-2.86 397.15-5.59ZM381.9-14.6L381.9-14.6 394.44-15.75Q394.27-19.8 391.32-21.31L391.32-21.31Q390.27-21.85 388.63-21.85 387-21.85 385.72-21.04 384.44-20.24 383.61-19.09L383.61-19.09Q382.02-16.92 381.9-14.6ZM404.79-2.59L404.79-20.36 401.67-20.92 401.67-22.95 408.75-24.73 408.75-18.51Q414.36-24.73 417.2-24.73L417.2-24.73Q419.52-24.73 421.47-22.88L421.47-22.88 420.2-18.92 419.05-18.92Q419.05-20.12 417.22-20.7L417.22-20.7Q416.71-20.85 416.2-20.85L416.2-20.85Q413.61-20.85 408.75-15.65L408.75-15.65 408.75-2.59 413.58-2.03 413.58 0 401.67 0 401.67-2.03 404.79-2.59Z" opacity="1" transform="matrix(1,0,0,1,0,0)" fill="white" class="slogan-text-1" id="SvgjsPath1826"></path></svg></g></svg></g></svg></g></svg></g><g></g></svg></g><defs><mask></mask></defs></svg><rect width="395.52" height="117.97571588806409" fill="black" stroke="none" visibility="hidden"></rect></g></mask><linearGradient x1="0" x2="1" y1="0.578" y2="0.595" id="d98c8078-ecd3-4d15-9fdb-a60991fe370e"><stop stop-color="#6ee2f5" offset="0"></stop><stop stop-color="#6454f0" offset="1"></stop></linearGradient><rect width="395.52033723461733" height="117.97571588806409" fill="#000000" mask="url(#e0506040-92f0-4d03-b243-8333efd38349)" data-fill-palette-color="secondary"></rect><mask id="b945d2e4-afb4-4169-ad50-45b4cd9e69a5"><g id="SvgjsG1849"><svg viewBox="0 0 395.52 117.97571588806409" height="117.97571588806409" width="395.52"><g><svg viewBox="0 0 395.52 117.97571588806409" height="117.97571588806409" width="395.52"><g><svg viewBox="0 0 395.52 117.97571588806409" height="117.97571588806409" width="395.52"><g id="SvgjsG1848"><svg viewBox="0 0 395.52 117.97571588806409" height="117.97571588806409" width="395.52" id="SvgjsSvg1847"><g><svg viewBox="0 0 395.52 88.15236104420077" height="88.15236104420077" width="395.52"><path d="M394.594 18.907C392.735 9.757 387.435 7.213 387.435 7.213 371.165-2.212 350.86-0.18 332.619 1.174 300.414 1.229 268.339 3.242 236.208 4.322 168.767 4.486 100.749 1.778 33.643 8.457 27.339 10.507-6.54 8.86 1.121 20.078 3.129 24.745 10.456 29.924 10.232 34.206 11.236 34.956 12.631 33.236 13.226 34.316 15.309 37.226 18.711 35.853 21.501 37.573 17.614 42.167 20.403 45.992 23.062 49.999 18.377 51.042 12.371 50.548 9.675 54.007 9.396 56.514 7.89 56.038 6.235 55.929 5.026 55.855 2.59 56.13 2.999 56.917 4.394 59.607-1.594 61.163 2.162 63.798-0.422 66.653 3.948 69.123 3.353 72.216 3.278 72.838 3.687 73.369 4.338 73.515 7.22 74.302 3.018 75.839 3.464 77.505 33.029 88.888 65.104 81.018 95.394 86.252 103.259 82.592 97.346 87.552 100.489 86.783 102.943 85.886 104.728 89.601 107.499 87.497 107.927 86.893 107.276 85.465 108.8 85.74 109.6 85.886 110.307 85.85 110.418 85.008 110.586 83.745 109.117 84.532 108.726 83.873 112.947 80.543 111.906 88.467 115.866 88.137 115.68 87.167 114.528 85.777 116.889 85.96 119.232 84.569 119.306 83.416 121.389 86.545 121.463 87.222 121.835 87.698 122.43 88.027 128.938 84.624 135.409 89.235 142.233 87.698 146.417 86.014 150.433 88.613 154.672 87.973 156.16 87.46 157.666 86.545 159.098 88.082 176.632 88.412 195.319 87.039 211.943 88.137 256.364 86.088 303.836 88.979 350.674 86.271 361.719 85.228 373.192 83.745 383.958 82.556 383.958 82.556 392.679 79.298 392.679 64.658S394.538 51.848 394.817 40.19C395.096 28.533 396.398 28.057 394.538 18.907Z" opacity="1" fill="white"></path><g transform="matrix(1,0,0,1,55.76832,26.068561146666667)"><svg width="283.98335999999995" viewBox="2 -36.05 288.17 36.55" height="36.01523875086745" data-palette-color="#000000"><path d="M31.65-0.4L32.35-0.4 32.35 0 27.2 0Q26 0 25.4-0.35 24.8-0.7 24.15-1.7L24.15-1.7 16.5-14.05Q15.8-15.2 15.33-15.48 14.85-15.75 13.65-15.75L13.65-15.75 9.95-15.75 9.95-0.8 14.3-0.4 14.3 0 2 0 2-0.4 6.1-0.8 6.1-33.7 2-34.1 2-34.5 14.65-34.5Q20.55-34.5 23.65-32.13 26.75-29.75 26.75-25.25L26.75-25.25Q26.75-21.75 24.85-19.5 22.95-17.25 19.35-16.4L19.35-16.4 19.4-16.4 28.55-2.1Q29.2-1.1 29.83-0.75 30.45-0.4 31.65-0.4L31.65-0.4ZM14.5-33.9L9.95-33.9 9.95-16.5 14.5-16.5Q18.5-16.5 20.43-18.63 22.35-20.75 22.35-25.15L22.35-25.15Q22.35-29.6 20.4-31.75 18.45-33.9 14.5-33.9L14.5-33.9ZM37.2 0.35Q35.3 0.35 34.07-0.98 32.85-2.3 32.85-4.4L32.85-4.4Q32.85-6.9 35.12-8.4 37.4-9.9 42.85-11L42.85-11 42.85-15.55Q42.85-18.45 42.2-19.58 41.55-20.7 39.95-20.7L39.95-20.7Q38.4-20.7 37.45-19.88 36.5-19.05 36.5-17.65L36.5-17.65 36.55-16.3Q36.55-15.05 36.07-14.33 35.6-13.6 34.75-13.6L34.75-13.6Q34-13.6 33.52-14.1 33.05-14.6 33.05-15.4L33.05-15.4Q33.05-16.6 34.22-18.03 35.4-19.45 37.25-20.4L37.25-20.4Q39.5-21.65 41.9-21.65L41.9-21.65Q43.3-21.65 44.27-21.1 45.25-20.55 45.7-19.55L45.7-19.55Q45.95-18.9 46.02-17.95 46.1-17 46.1-14.3L46.1-14.3 46.1-4.75Q46.1-2.95 46.45-2.27 46.8-1.6 47.7-1.6L47.7-1.6Q49.05-1.6 49.7-2.55L49.7-2.55 49.9-2.45Q49.3-1.2 48.3-0.53 47.3 0.15 46.15 0.15L46.15 0.15Q44.85 0.15 44-0.63 43.15-1.4 43.05-2.7L43.05-2.7 42.9-2.75Q41.75-1.3 40.25-0.48 38.75 0.35 37.2 0.35L37.2 0.35ZM39.35-1.55Q40.4-1.55 41.32-2.02 42.25-2.5 42.85-3.4L42.85-3.4 42.85-10.45Q40.25-9.8 38.82-9.15 37.4-8.5 36.8-7.6 36.2-6.7 36.2-5.35L36.2-5.35Q36.2-3.6 37.05-2.58 37.9-1.55 39.35-1.55L39.35-1.55ZM53.5-28.9Q53.5-29.95 54.17-30.63 54.85-31.3 55.9-31.3L55.9-31.3Q56.95-31.3 57.62-30.63 58.3-29.95 58.3-28.9L58.3-28.9Q58.3-27.85 57.62-27.18 56.95-26.5 55.9-26.5L55.9-26.5Q54.85-26.5 54.17-27.18 53.5-27.85 53.5-28.9L53.5-28.9ZM57.8-0.8L57.8-21.7 57.4-21.7 51.6-19.75 51.6-19.4 54.55-18.3 54.55-0.8 51.5-0.4 51.5 0 60.85 0 60.85-0.4 57.8-0.8ZM71.44-21.7Q67.94-21.7 66.02-20.15 64.09-18.6 64.09-15.8L64.09-15.8Q64.09-14.05 64.79-12.9 65.49-11.75 66.52-11.08 67.54-10.4 69.24-9.55L69.24-9.55Q71.54-8.45 72.69-7.4 73.84-6.35 73.84-4.3L73.84-4.3Q73.84-2.4 72.74-1.23 71.64-0.05 69.79-0.05L69.79-0.05Q67.74-0.05 66.47-1.73 65.19-3.4 64.69-6.9L64.69-6.9 64.09-6.9 64.34-0.4Q65.39 0 66.89 0.25 68.39 0.5 69.59 0.5L69.59 0.5Q72.89 0.5 74.84-1.28 76.79-3.05 76.79-6.1L76.79-6.1Q76.79-7.95 76.07-9.15 75.34-10.35 74.32-11.03 73.29-11.7 71.54-12.5L71.54-12.5Q69.29-13.55 68.19-14.53 67.09-15.5 67.09-17.4L67.09-17.4Q67.09-19.1 68.09-20.13 69.09-21.15 70.74-21.15L70.74-21.15Q72.54-21.15 73.62-19.8 74.69-18.45 75.39-15.45L75.39-15.45 75.94-15.45 75.94-21Q75.14-21.3 73.89-21.5 72.64-21.7 71.44-21.7L71.44-21.7ZM85.39 0.35Q83.49 0.35 82.27-0.98 81.04-2.3 81.04-4.4L81.04-4.4Q81.04-6.9 83.32-8.4 85.59-9.9 91.04-11L91.04-11 91.04-15.55Q91.04-18.45 90.39-19.58 89.74-20.7 88.14-20.7L88.14-20.7Q86.59-20.7 85.64-19.88 84.69-19.05 84.69-17.65L84.69-17.65 84.74-16.3Q84.74-15.05 84.27-14.33 83.79-13.6 82.94-13.6L82.94-13.6Q82.19-13.6 81.72-14.1 81.24-14.6 81.24-15.4L81.24-15.4Q81.24-16.6 82.42-18.03 83.59-19.45 85.44-20.4L85.44-20.4Q87.69-21.65 90.09-21.65L90.09-21.65Q91.49-21.65 92.47-21.1 93.44-20.55 93.89-19.55L93.89-19.55Q94.14-18.9 94.22-17.95 94.29-17 94.29-14.3L94.29-14.3 94.29-4.75Q94.29-2.95 94.64-2.27 94.99-1.6 95.89-1.6L95.89-1.6Q97.24-1.6 97.89-2.55L97.89-2.55 98.09-2.45Q97.49-1.2 96.49-0.53 95.49 0.15 94.34 0.15L94.34 0.15Q93.04 0.15 92.19-0.63 91.34-1.4 91.24-2.7L91.24-2.7 91.09-2.75Q89.94-1.3 88.44-0.48 86.94 0.35 85.39 0.35L85.39 0.35ZM87.54-1.55Q88.59-1.55 89.52-2.02 90.44-2.5 91.04-3.4L91.04-3.4 91.04-10.45Q88.44-9.8 87.02-9.15 85.59-8.5 84.99-7.6 84.39-6.7 84.39-5.35L84.39-5.35Q84.39-3.6 85.24-2.58 86.09-1.55 87.54-1.55L87.54-1.55ZM135.89-31.85Q138.94-29.7 140.64-25.95 142.34-22.2 142.34-17.45L142.34-17.45Q142.34-12.7 140.64-8.8 138.94-4.9 135.89-2.7L135.89-2.7Q133.94-1.3 131.41-0.65 128.89 0 125.24 0L125.24 0 111.94 0 111.94-0.4 116.04-0.8 116.04-33.7 111.94-34.1 111.94-34.5 125.24-34.5Q132.04-34.5 135.89-31.85L135.89-31.85ZM134.09-3.55Q135.69-5.6 136.61-9.38 137.54-13.15 137.54-17.7L137.54-17.7Q137.54-22.15 136.66-25.55 135.79-28.95 134.09-30.95L134.09-30.95Q132.69-32.6 130.64-33.25 128.59-33.9 124.79-33.9L124.79-33.9 119.89-33.9 119.89-0.6 124.79-0.6Q128.79-0.6 130.79-1.25 132.79-1.9 134.09-3.55L134.09-3.55ZM156.48-21.7Q159.38-21.7 161.63-20.3 163.88-18.9 165.13-16.38 166.38-13.85 166.38-10.6L166.38-10.6Q166.38-7.35 165.13-4.83 163.88-2.3 161.63-0.9 159.38 0.5 156.48 0.5L156.48 0.5Q153.58 0.5 151.33-0.9 149.08-2.3 147.83-4.83 146.58-7.35 146.58-10.6L146.58-10.6Q146.58-13.85 147.83-16.38 149.08-18.9 151.33-20.3 153.58-21.7 156.48-21.7L156.48-21.7ZM150.28-10.6Q150.28-5.6 151.93-2.8 153.58 0 156.48 0L156.48 0Q159.38 0 161.03-2.8 162.68-5.6 162.68-10.6L162.68-10.6Q162.68-15.6 161.03-18.4 159.38-21.2 156.48-21.2L156.48-21.2Q153.58-21.2 151.93-18.4 150.28-15.6 150.28-10.6L150.28-10.6ZM181.03-21.7Q182.03-21.7 182.73-21.03 183.43-20.35 183.43-19.4L183.43-19.4Q183.43-18.6 182.88-18.05 182.33-17.5 181.53-17.5L181.53-17.5Q181.03-17.5 180.71-17.73 180.38-17.95 180.03-18.4L180.03-18.4Q179.68-18.8 179.41-19 179.13-19.2 178.73-19.2L178.73-19.2Q177.93-19.2 177.11-18.25 176.28-17.3 175.93-16.05L175.93-16.05 175.93-0.8 179.93-0.4 179.93 0 169.63 0 169.63-0.4 172.68-0.8 172.68-18.3 169.73-19.4 169.73-19.75 175.38-21.7 175.78-21.7 175.78-17.3Q178.58-21.7 181.03-21.7L181.03-21.7ZM186.98-21.2L186.53-13.9 187.28-13.85Q187.78-16.4 188.98-19.7L188.98-19.7 189.28-20.5 198.08-20.5 185.68-1.1 185.68 0 201.03 0 201.33-7.7 200.63-7.75Q199.78-4.5 198.73-1.65L198.73-1.65 198.38-0.75 189.08-0.75 201.58-20.1 201.58-21.2 186.98-21.2ZM214.83 0.5Q217.68 0.5 219.98-1.05 222.28-2.6 223.58-5.3 224.88-8 224.88-11.4L224.88-11.4Q224.88-14.45 223.83-16.78 222.78-19.1 220.88-20.4 218.98-21.7 216.53-21.7L216.53-21.7Q213.03-21.7 210.38-18.85L210.38-18.85 210.38-36.05 209.98-36.05 204.18-34.1 204.18-33.75 207.13-32.65 207.13 0 207.53 0 209.03-1.35 209.23-1.35Q211.68 0.5 214.83 0.5L214.83 0.5ZM214.78 0Q212.78 0 211.58-1.38 210.38-2.75 210.38-5.05L210.38-5.05 210.38-18.1Q211.13-19.1 212.3-19.65 213.48-20.2 214.83-20.2L214.83-20.2Q217.78-20.2 219.45-17.55 221.13-14.9 221.13-10.35L221.13-10.35Q221.13-5.65 219.4-2.83 217.68 0 214.78 0L214.78 0ZM233.37 0.35Q231.47 0.35 230.25-0.98 229.02-2.3 229.02-4.4L229.02-4.4Q229.02-6.9 231.3-8.4 233.57-9.9 239.02-11L239.02-11 239.02-15.55Q239.02-18.45 238.37-19.58 237.72-20.7 236.12-20.7L236.12-20.7Q234.57-20.7 233.62-19.88 232.67-19.05 232.67-17.65L232.67-17.65 232.72-16.3Q232.72-15.05 232.25-14.33 231.77-13.6 230.92-13.6L230.92-13.6Q230.17-13.6 229.7-14.1 229.22-14.6 229.22-15.4L229.22-15.4Q229.22-16.6 230.4-18.03 231.57-19.45 233.42-20.4L233.42-20.4Q235.67-21.65 238.07-21.65L238.07-21.65Q239.47-21.65 240.45-21.1 241.42-20.55 241.87-19.55L241.87-19.55Q242.12-18.9 242.2-17.95 242.27-17 242.27-14.3L242.27-14.3 242.27-4.75Q242.27-2.95 242.62-2.27 242.97-1.6 243.87-1.6L243.87-1.6Q245.22-1.6 245.87-2.55L245.87-2.55 246.07-2.45Q245.47-1.2 244.47-0.53 243.47 0.15 242.32 0.15L242.32 0.15Q241.02 0.15 240.17-0.63 239.32-1.4 239.22-2.7L239.22-2.7 239.07-2.75Q237.92-1.3 236.42-0.48 234.92 0.35 233.37 0.35L233.37 0.35ZM235.52-1.55Q236.57-1.55 237.5-2.02 238.42-2.5 239.02-3.4L239.02-3.4 239.02-10.45Q236.42-9.8 235-9.15 233.57-8.5 232.97-7.6 232.37-6.7 232.37-5.35L232.37-5.35Q232.37-3.6 233.22-2.58 234.07-1.55 235.52-1.55L235.52-1.55ZM258.32-21.7Q255.47-21.7 253.22-20.25 250.97-18.8 249.7-16.2 248.42-13.6 248.42-10.35L248.42-10.35Q248.42-7.2 249.6-4.73 250.77-2.25 252.85-0.88 254.92 0.5 257.57 0.5L257.57 0.5Q260.32 0.5 262.35-0.95 264.37-2.4 265.37-5.05L265.37-5.05 265.57-5.6 265.37-5.7 264.92-5.1Q263.67-3.5 262.2-2.73 260.72-1.95 258.87-1.95L258.87-1.95Q255.47-1.95 253.62-4.35 251.77-6.75 251.77-11.1L251.77-11.1Q251.77-14 252.6-16.3 253.42-18.6 254.87-19.9 256.32-21.2 258.12-21.2L258.12-21.2Q259.62-21.2 260.17-20.4 260.72-19.6 261.07-18.05L261.07-18.05Q261.37-16.7 261.75-16.07 262.12-15.45 263.12-15.45L263.12-15.45Q263.97-15.45 264.47-15.98 264.97-16.5 264.97-17.35L264.97-17.35Q264.97-19.2 263.05-20.45 261.12-21.7 258.32-21.7L258.32-21.7ZM287.42-0.8L290.17-0.4 290.17 0 283.77 0 275.32-10.25 273.92-8.55 273.92-0.8 276.92-0.4 276.92 0 267.62 0 267.62-0.4 270.67-0.8 270.67-32.65 267.72-33.75 267.72-34.1 273.52-36.05 273.92-36.05 273.92-9.45 281.02-18Q281.92-19.15 281.92-19.6L281.92-19.6Q281.92-20.05 281.27-20.3 280.62-20.55 278.82-20.8L278.82-20.8 278.82-21.2 287.27-21.2 287.27-20.8Q285.27-20.45 284.14-19.88 283.02-19.3 282.02-18.1L282.02-18.1 277.52-12.8 287.42-0.8Z" opacity="1" transform="matrix(1,0,0,1,0,0)" fill="black" class="wordmark-text-0" id="SvgjsPath1846"></path></svg></g></svg></g><g transform="matrix(1,0,0,1,115.48272533981317,96.65469454755056)"><svg viewBox="0 0 164.55454932037364 21.32102134051353" height="21.32102134051353" width="164.55454932037364"><g transform="matrix(1,0,0,1,0,0)"><svg width="164.55454932037364" viewBox="2.64 -40.6 418.83000000000004 54.27" height="21.32102134051353" data-palette-color="url(#d98c8078-ecd3-4d15-9fdb-a60991fe370e)"></svg></g></svg></g></svg></g></svg></g><g></g></svg></g><defs><mask></mask></defs><mask><g id="SvgjsG1845"><svg viewBox="0 0 395.52 117.97571588806409" height="117.97571588806409" width="395.52"><g><svg viewBox="0 0 395.52 117.97571588806409" height="117.97571588806409" width="395.52"><g><svg viewBox="0 0 395.52 117.97571588806409" height="117.97571588806409" width="395.52"><g id="SvgjsG1844"><svg viewBox="0 0 395.52 117.97571588806409" height="117.97571588806409" width="395.52" id="SvgjsSvg1843"><g><svg viewBox="0 0 395.52 88.15236104420077" height="88.15236104420077" width="395.52"><path d="M394.594 18.907C392.735 9.757 387.435 7.213 387.435 7.213 371.165-2.212 350.86-0.18 332.619 1.174 300.414 1.229 268.339 3.242 236.208 4.322 168.767 4.486 100.749 1.778 33.643 8.457 27.339 10.507-6.54 8.86 1.121 20.078 3.129 24.745 10.456 29.924 10.232 34.206 11.236 34.956 12.631 33.236 13.226 34.316 15.309 37.226 18.711 35.853 21.501 37.573 17.614 42.167 20.403 45.992 23.062 49.999 18.377 51.042 12.371 50.548 9.675 54.007 9.396 56.514 7.89 56.038 6.235 55.929 5.026 55.855 2.59 56.13 2.999 56.917 4.394 59.607-1.594 61.163 2.162 63.798-0.422 66.653 3.948 69.123 3.353 72.216 3.278 72.838 3.687 73.369 4.338 73.515 7.22 74.302 3.018 75.839 3.464 77.505 33.029 88.888 65.104 81.018 95.394 86.252 103.259 82.592 97.346 87.552 100.489 86.783 102.943 85.886 104.728 89.601 107.499 87.497 107.927 86.893 107.276 85.465 108.8 85.74 109.6 85.886 110.307 85.85 110.418 85.008 110.586 83.745 109.117 84.532 108.726 83.873 112.947 80.543 111.906 88.467 115.866 88.137 115.68 87.167 114.528 85.777 116.889 85.96 119.232 84.569 119.306 83.416 121.389 86.545 121.463 87.222 121.835 87.698 122.43 88.027 128.938 84.624 135.409 89.235 142.233 87.698 146.417 86.014 150.433 88.613 154.672 87.973 156.16 87.46 157.666 86.545 159.098 88.082 176.632 88.412 195.319 87.039 211.943 88.137 256.364 86.088 303.836 88.979 350.674 86.271 361.719 85.228 373.192 83.745 383.958 82.556 383.958 82.556 392.679 79.298 392.679 64.658S394.538 51.848 394.817 40.19C395.096 28.533 396.398 28.057 394.538 18.907Z" opacity="1" fill="black"></path><g transform="matrix(1,0,0,1,55.76832,26.068561146666667)"><svg width="283.98335999999995" viewBox="2 -36.05 288.17 36.55" height="36.01523875086745" data-palette-color="#000000"><path d="M31.65-0.4L32.35-0.4 32.35 0 27.2 0Q26 0 25.4-0.35 24.8-0.7 24.15-1.7L24.15-1.7 16.5-14.05Q15.8-15.2 15.33-15.48 14.85-15.75 13.65-15.75L13.65-15.75 9.95-15.75 9.95-0.8 14.3-0.4 14.3 0 2 0 2-0.4 6.1-0.8 6.1-33.7 2-34.1 2-34.5 14.65-34.5Q20.55-34.5 23.65-32.13 26.75-29.75 26.75-25.25L26.75-25.25Q26.75-21.75 24.85-19.5 22.95-17.25 19.35-16.4L19.35-16.4 19.4-16.4 28.55-2.1Q29.2-1.1 29.83-0.75 30.45-0.4 31.65-0.4L31.65-0.4ZM14.5-33.9L9.95-33.9 9.95-16.5 14.5-16.5Q18.5-16.5 20.43-18.63 22.35-20.75 22.35-25.15L22.35-25.15Q22.35-29.6 20.4-31.75 18.45-33.9 14.5-33.9L14.5-33.9ZM37.2 0.35Q35.3 0.35 34.07-0.98 32.85-2.3 32.85-4.4L32.85-4.4Q32.85-6.9 35.12-8.4 37.4-9.9 42.85-11L42.85-11 42.85-15.55Q42.85-18.45 42.2-19.58 41.55-20.7 39.95-20.7L39.95-20.7Q38.4-20.7 37.45-19.88 36.5-19.05 36.5-17.65L36.5-17.65 36.55-16.3Q36.55-15.05 36.07-14.33 35.6-13.6 34.75-13.6L34.75-13.6Q34-13.6 33.52-14.1 33.05-14.6 33.05-15.4L33.05-15.4Q33.05-16.6 34.22-18.03 35.4-19.45 37.25-20.4L37.25-20.4Q39.5-21.65 41.9-21.65L41.9-21.65Q43.3-21.65 44.27-21.1 45.25-20.55 45.7-19.55L45.7-19.55Q45.95-18.9 46.02-17.95 46.1-17 46.1-14.3L46.1-14.3 46.1-4.75Q46.1-2.95 46.45-2.27 46.8-1.6 47.7-1.6L47.7-1.6Q49.05-1.6 49.7-2.55L49.7-2.55 49.9-2.45Q49.3-1.2 48.3-0.53 47.3 0.15 46.15 0.15L46.15 0.15Q44.85 0.15 44-0.63 43.15-1.4 43.05-2.7L43.05-2.7 42.9-2.75Q41.75-1.3 40.25-0.48 38.75 0.35 37.2 0.35L37.2 0.35ZM39.35-1.55Q40.4-1.55 41.32-2.02 42.25-2.5 42.85-3.4L42.85-3.4 42.85-10.45Q40.25-9.8 38.82-9.15 37.4-8.5 36.8-7.6 36.2-6.7 36.2-5.35L36.2-5.35Q36.2-3.6 37.05-2.58 37.9-1.55 39.35-1.55L39.35-1.55ZM53.5-28.9Q53.5-29.95 54.17-30.63 54.85-31.3 55.9-31.3L55.9-31.3Q56.95-31.3 57.62-30.63 58.3-29.95 58.3-28.9L58.3-28.9Q58.3-27.85 57.62-27.18 56.95-26.5 55.9-26.5L55.9-26.5Q54.85-26.5 54.17-27.18 53.5-27.85 53.5-28.9L53.5-28.9ZM57.8-0.8L57.8-21.7 57.4-21.7 51.6-19.75 51.6-19.4 54.55-18.3 54.55-0.8 51.5-0.4 51.5 0 60.85 0 60.85-0.4 57.8-0.8ZM71.44-21.7Q67.94-21.7 66.02-20.15 64.09-18.6 64.09-15.8L64.09-15.8Q64.09-14.05 64.79-12.9 65.49-11.75 66.52-11.08 67.54-10.4 69.24-9.55L69.24-9.55Q71.54-8.45 72.69-7.4 73.84-6.35 73.84-4.3L73.84-4.3Q73.84-2.4 72.74-1.23 71.64-0.05 69.79-0.05L69.79-0.05Q67.74-0.05 66.47-1.73 65.19-3.4 64.69-6.9L64.69-6.9 64.09-6.9 64.34-0.4Q65.39 0 66.89 0.25 68.39 0.5 69.59 0.5L69.59 0.5Q72.89 0.5 74.84-1.28 76.79-3.05 76.79-6.1L76.79-6.1Q76.79-7.95 76.07-9.15 75.34-10.35 74.32-11.03 73.29-11.7 71.54-12.5L71.54-12.5Q69.29-13.55 68.19-14.53 67.09-15.5 67.09-17.4L67.09-17.4Q67.09-19.1 68.09-20.13 69.09-21.15 70.74-21.15L70.74-21.15Q72.54-21.15 73.62-19.8 74.69-18.45 75.39-15.45L75.39-15.45 75.94-15.45 75.94-21Q75.14-21.3 73.89-21.5 72.64-21.7 71.44-21.7L71.44-21.7ZM85.39 0.35Q83.49 0.35 82.27-0.98 81.04-2.3 81.04-4.4L81.04-4.4Q81.04-6.9 83.32-8.4 85.59-9.9 91.04-11L91.04-11 91.04-15.55Q91.04-18.45 90.39-19.58 89.74-20.7 88.14-20.7L88.14-20.7Q86.59-20.7 85.64-19.88 84.69-19.05 84.69-17.65L84.69-17.65 84.74-16.3Q84.74-15.05 84.27-14.33 83.79-13.6 82.94-13.6L82.94-13.6Q82.19-13.6 81.72-14.1 81.24-14.6 81.24-15.4L81.24-15.4Q81.24-16.6 82.42-18.03 83.59-19.45 85.44-20.4L85.44-20.4Q87.69-21.65 90.09-21.65L90.09-21.65Q91.49-21.65 92.47-21.1 93.44-20.55 93.89-19.55L93.89-19.55Q94.14-18.9 94.22-17.95 94.29-17 94.29-14.3L94.29-14.3 94.29-4.75Q94.29-2.95 94.64-2.27 94.99-1.6 95.89-1.6L95.89-1.6Q97.24-1.6 97.89-2.55L97.89-2.55 98.09-2.45Q97.49-1.2 96.49-0.53 95.49 0.15 94.34 0.15L94.34 0.15Q93.04 0.15 92.19-0.63 91.34-1.4 91.24-2.7L91.24-2.7 91.09-2.75Q89.94-1.3 88.44-0.48 86.94 0.35 85.39 0.35L85.39 0.35ZM87.54-1.55Q88.59-1.55 89.52-2.02 90.44-2.5 91.04-3.4L91.04-3.4 91.04-10.45Q88.44-9.8 87.02-9.15 85.59-8.5 84.99-7.6 84.39-6.7 84.39-5.35L84.39-5.35Q84.39-3.6 85.24-2.58 86.09-1.55 87.54-1.55L87.54-1.55ZM135.89-31.85Q138.94-29.7 140.64-25.95 142.34-22.2 142.34-17.45L142.34-17.45Q142.34-12.7 140.64-8.8 138.94-4.9 135.89-2.7L135.89-2.7Q133.94-1.3 131.41-0.65 128.89 0 125.24 0L125.24 0 111.94 0 111.94-0.4 116.04-0.8 116.04-33.7 111.94-34.1 111.94-34.5 125.24-34.5Q132.04-34.5 135.89-31.85L135.89-31.85ZM134.09-3.55Q135.69-5.6 136.61-9.38 137.54-13.15 137.54-17.7L137.54-17.7Q137.54-22.15 136.66-25.55 135.79-28.95 134.09-30.95L134.09-30.95Q132.69-32.6 130.64-33.25 128.59-33.9 124.79-33.9L124.79-33.9 119.89-33.9 119.89-0.6 124.79-0.6Q128.79-0.6 130.79-1.25 132.79-1.9 134.09-3.55L134.09-3.55ZM156.48-21.7Q159.38-21.7 161.63-20.3 163.88-18.9 165.13-16.38 166.38-13.85 166.38-10.6L166.38-10.6Q166.38-7.35 165.13-4.83 163.88-2.3 161.63-0.9 159.38 0.5 156.48 0.5L156.48 0.5Q153.58 0.5 151.33-0.9 149.08-2.3 147.83-4.83 146.58-7.35 146.58-10.6L146.58-10.6Q146.58-13.85 147.83-16.38 149.08-18.9 151.33-20.3 153.58-21.7 156.48-21.7L156.48-21.7ZM150.28-10.6Q150.28-5.6 151.93-2.8 153.58 0 156.48 0L156.48 0Q159.38 0 161.03-2.8 162.68-5.6 162.68-10.6L162.68-10.6Q162.68-15.6 161.03-18.4 159.38-21.2 156.48-21.2L156.48-21.2Q153.58-21.2 151.93-18.4 150.28-15.6 150.28-10.6L150.28-10.6ZM181.03-21.7Q182.03-21.7 182.73-21.03 183.43-20.35 183.43-19.4L183.43-19.4Q183.43-18.6 182.88-18.05 182.33-17.5 181.53-17.5L181.53-17.5Q181.03-17.5 180.71-17.73 180.38-17.95 180.03-18.4L180.03-18.4Q179.68-18.8 179.41-19 179.13-19.2 178.73-19.2L178.73-19.2Q177.93-19.2 177.11-18.25 176.28-17.3 175.93-16.05L175.93-16.05 175.93-0.8 179.93-0.4 179.93 0 169.63 0 169.63-0.4 172.68-0.8 172.68-18.3 169.73-19.4 169.73-19.75 175.38-21.7 175.78-21.7 175.78-17.3Q178.58-21.7 181.03-21.7L181.03-21.7ZM186.98-21.2L186.53-13.9 187.28-13.85Q187.78-16.4 188.98-19.7L188.98-19.7 189.28-20.5 198.08-20.5 185.68-1.1 185.68 0 201.03 0 201.33-7.7 200.63-7.75Q199.78-4.5 198.73-1.65L198.73-1.65 198.38-0.75 189.08-0.75 201.58-20.1 201.58-21.2 186.98-21.2ZM214.83 0.5Q217.68 0.5 219.98-1.05 222.28-2.6 223.58-5.3 224.88-8 224.88-11.4L224.88-11.4Q224.88-14.45 223.83-16.78 222.78-19.1 220.88-20.4 218.98-21.7 216.53-21.7L216.53-21.7Q213.03-21.7 210.38-18.85L210.38-18.85 210.38-36.05 209.98-36.05 204.18-34.1 204.18-33.75 207.13-32.65 207.13 0 207.53 0 209.03-1.35 209.23-1.35Q211.68 0.5 214.83 0.5L214.83 0.5ZM214.78 0Q212.78 0 211.58-1.38 210.38-2.75 210.38-5.05L210.38-5.05 210.38-18.1Q211.13-19.1 212.3-19.65 213.48-20.2 214.83-20.2L214.83-20.2Q217.78-20.2 219.45-17.55 221.13-14.9 221.13-10.35L221.13-10.35Q221.13-5.65 219.4-2.83 217.68 0 214.78 0L214.78 0ZM233.37 0.35Q231.47 0.35 230.25-0.98 229.02-2.3 229.02-4.4L229.02-4.4Q229.02-6.9 231.3-8.4 233.57-9.9 239.02-11L239.02-11 239.02-15.55Q239.02-18.45 238.37-19.58 237.72-20.7 236.12-20.7L236.12-20.7Q234.57-20.7 233.62-19.88 232.67-19.05 232.67-17.65L232.67-17.65 232.72-16.3Q232.72-15.05 232.25-14.33 231.77-13.6 230.92-13.6L230.92-13.6Q230.17-13.6 229.7-14.1 229.22-14.6 229.22-15.4L229.22-15.4Q229.22-16.6 230.4-18.03 231.57-19.45 233.42-20.4L233.42-20.4Q235.67-21.65 238.07-21.65L238.07-21.65Q239.47-21.65 240.45-21.1 241.42-20.55 241.87-19.55L241.87-19.55Q242.12-18.9 242.2-17.95 242.27-17 242.27-14.3L242.27-14.3 242.27-4.75Q242.27-2.95 242.62-2.27 242.97-1.6 243.87-1.6L243.87-1.6Q245.22-1.6 245.87-2.55L245.87-2.55 246.07-2.45Q245.47-1.2 244.47-0.53 243.47 0.15 242.32 0.15L242.32 0.15Q241.02 0.15 240.17-0.63 239.32-1.4 239.22-2.7L239.22-2.7 239.07-2.75Q237.92-1.3 236.42-0.48 234.92 0.35 233.37 0.35L233.37 0.35ZM235.52-1.55Q236.57-1.55 237.5-2.02 238.42-2.5 239.02-3.4L239.02-3.4 239.02-10.45Q236.42-9.8 235-9.15 233.57-8.5 232.97-7.6 232.37-6.7 232.37-5.35L232.37-5.35Q232.37-3.6 233.22-2.58 234.07-1.55 235.52-1.55L235.52-1.55ZM258.32-21.7Q255.47-21.7 253.22-20.25 250.97-18.8 249.7-16.2 248.42-13.6 248.42-10.35L248.42-10.35Q248.42-7.2 249.6-4.73 250.77-2.25 252.85-0.88 254.92 0.5 257.57 0.5L257.57 0.5Q260.32 0.5 262.35-0.95 264.37-2.4 265.37-5.05L265.37-5.05 265.57-5.6 265.37-5.7 264.92-5.1Q263.67-3.5 262.2-2.73 260.72-1.95 258.87-1.95L258.87-1.95Q255.47-1.95 253.62-4.35 251.77-6.75 251.77-11.1L251.77-11.1Q251.77-14 252.6-16.3 253.42-18.6 254.87-19.9 256.32-21.2 258.12-21.2L258.12-21.2Q259.62-21.2 260.17-20.4 260.72-19.6 261.07-18.05L261.07-18.05Q261.37-16.7 261.75-16.07 262.12-15.45 263.12-15.45L263.12-15.45Q263.97-15.45 264.47-15.98 264.97-16.5 264.97-17.35L264.97-17.35Q264.97-19.2 263.05-20.45 261.12-21.7 258.32-21.7L258.32-21.7ZM287.42-0.8L290.17-0.4 290.17 0 283.77 0 275.32-10.25 273.92-8.55 273.92-0.8 276.92-0.4 276.92 0 267.62 0 267.62-0.4 270.67-0.8 270.67-32.65 267.72-33.75 267.72-34.1 273.52-36.05 273.92-36.05 273.92-9.45 281.02-18Q281.92-19.15 281.92-19.6L281.92-19.6Q281.92-20.05 281.27-20.3 280.62-20.55 278.82-20.8L278.82-20.8 278.82-21.2 287.27-21.2 287.27-20.8Q285.27-20.45 284.14-19.88 283.02-19.3 282.02-18.1L282.02-18.1 277.52-12.8 287.42-0.8Z" opacity="1" transform="matrix(1,0,0,1,0,0)" fill="black" class="wordmark-text-0" id="SvgjsPath1842"></path></svg></g></svg></g><g transform="matrix(1,0,0,1,115.48272533981317,96.65469454755056)"><svg viewBox="0 0 164.55454932037364 21.32102134051353" height="21.32102134051353" width="164.55454932037364"><g transform="matrix(1,0,0,1,0,0)"><svg width="164.55454932037364" viewBox="2.64 -40.6 418.83000000000004 54.27" height="21.32102134051353" data-palette-color="url(#d98c8078-ecd3-4d15-9fdb-a60991fe370e)"><path d="M14.4-2.34L14.4-2.34Q16.21-2.34 17.69-2.7 19.17-3.05 20.24-3.81L20.24-3.81Q22.53-5.4 22.53-8.45L22.53-8.45Q22.53-11.04 20.85-12.7L20.85-12.7Q19.07-14.4 15.08-16.15 11.08-17.9 9-19.27 6.91-20.65 5.71-22.07L5.71-22.07Q3.54-24.56 3.54-28.1L3.54-28.1Q3.54-32.2 7.08-34.86L7.08-34.86Q10.38-37.38 15.06-37.38L15.06-37.38Q18.75-37.38 22.44-36.04L22.44-36.04Q23.97-35.42 25.22-34.69L25.22-34.69 24.37-28.17 22.31-28.17Q22.31-31.54 20.48-33.07 18.65-34.59 15.19-34.59L15.19-34.59Q10.4-34.59 8.64-31.47L8.64-31.47Q8.08-30.44 8.08-29.17 8.08-27.91 8.45-26.89 8.81-25.88 9.86-24.9L9.86-24.9Q11.91-22.92 17.58-20.56L17.58-20.56Q25.49-17.19 26.81-12.6L26.81-12.6Q27.2-11.16 27.2-9.53 27.2-7.91 26.65-6.46 26.1-5 25.15-3.87 24.19-2.73 22.94-1.9 21.68-1.07 20.26-0.54L20.26-0.54Q13.99 1.9 7.08-0.93L7.08-0.93Q4.57-1.98 2.64-3.49L2.64-3.49 3.66-10.5 5.74-10.5Q5.74-5.59 8.84-3.66L8.84-3.66Q10.96-2.34 14.4-2.34ZM31.76-11.87L31.76-11.87Q31.76-14.67 32.72-17.09 33.69-19.51 35.35-21.19L35.35-21.19Q38.77-24.73 43.77-24.73L43.77-24.73Q49.58-24.73 52.85-21.29L52.85-21.29Q55.95-17.99 55.95-12.67L55.95-12.67Q55.95-6.74 52.44-3.03L52.44-3.03Q49.02 0.56 43.99 0.56L43.99 0.56Q38.25 0.56 34.91-2.98L34.91-2.98Q31.76-6.3 31.76-11.87ZM38.01-19.15Q37.03-17.9 36.53-16.21 36.03-14.53 36.03-12.56 36.03-10.6 36.48-8.73 36.94-6.86 37.89-5.42L37.89-5.42Q39.99-2.29 43.94-2.29L43.94-2.29Q47.65-2.29 49.7-4.74L49.7-4.74Q51.73-7.13 51.73-11.21L51.73-11.21Q51.73-18.43 47.6-20.92L47.6-20.92Q46.07-21.85 43.97-21.85 41.87-21.85 40.43-21.13 38.99-20.41 38.01-19.15ZM66.91-21.29L66.91-2.69 72.21-2.03 72.21 0 59.59 0 59.59-2.03 62.96-2.59 62.96-21.39 59.59-21.39 59.59-23.41 62.96-24.15 62.96-29.32Q62.96-33.15 65.33-36.62L65.33-36.62Q68.04-40.6 72.43-40.6L72.43-40.6Q75.24-40.6 77.02-39.48L77.02-39.48Q77.8-38.99 78.19-38.35L78.19-38.35 76.53-34.03 74.95-34.03Q74.95-36.47 73.24-37.35L73.24-37.35Q72.63-37.7 71.69-37.7 70.75-37.7 69.88-37.29 69.01-36.89 68.35-36.06L68.35-36.06Q66.91-34.25 66.91-31.01L66.91-31.01 66.91-24.15 74.34-24.15 74.34-21.29 66.91-21.29ZM83.46-21.29L83.46-7.47Q83.46-2.59 87.42-2.59L87.42-2.59Q89.49-2.59 91.45-4.3L91.45-4.3 92.77-2.69Q90.69-0.98 88.93-0.21 87.18 0.56 85.83 0.56 84.49 0.56 83.23-0.02 81.97-0.61 81.14-1.71L81.14-1.71Q79.51-3.83 79.51-7.74L79.51-7.74 79.51-21.29 76.41-21.29 76.41-23.41 79.51-24.15 79.51-27.42 82.39-30.3 83.46-30.3 83.46-24.15 91.52-24.15 91.52-21.29 83.46-21.29ZM131.07-21.56L122.55 0 119.16 0 113-17.26 106.63 0 103.24 0 94.67-21.56 91.88-22.12 91.88-24.15 101.97-24.15 101.97-22.12 99.14-21.56 105.82-3.96 111.59-20.36 110.88-21.56 107.78-22.12 107.78-24.15 118.42-24.15 118.42-22.12 115.42-21.56 121.74-3.96Q121.74-3.96 128.14-21.68L128.14-21.68 125.31-22.12 125.31-24.15 133.8-24.15 133.8-22.12 131.07-21.56ZM158.12-3.56L158.56-1.27Q154.99 0.56 153.41 0.56L153.41 0.56Q149.84 0.56 149.84-2.47L149.84-2.47 149.84-3.22Q149.5-2.71 147.97-1.73 146.45-0.76 145.59-0.37L145.59-0.37Q143.57 0.56 142.52 0.56 141.47 0.56 140.78 0.48 140.1 0.39 139.37 0.15 138.63-0.1 137.93-0.54 137.22-0.98 136.66-1.68L136.66-1.68Q135.41-3.25 135.41-5.76L135.41-5.76Q135.41-9.23 137.88-10.6L137.88-10.6Q139.44-11.5 141.19-11.72 142.93-11.94 144.37-12.06L144.37-12.06Q147.11-12.3 149.84-12.35L149.84-12.35 149.84-17.48Q149.84-19.6 149.3-20.31L149.3-20.31Q148.4-21.56 146.5-21.56L146.5-21.56Q142.25-21.56 138.15-18.8L138.15-18.8 136.73-20.92Q142.44-24.73 146.96-24.73L146.96-24.73Q150.89-24.73 152.53-22.56L152.53-22.56Q153.8-20.87 153.8-17.77L153.8-17.77 153.8-4.93Q153.8-3.13 154.48-2.88L154.48-2.88Q154.72-2.81 155.11-2.81L155.11-2.81Q156.09-2.81 158.12-3.56L158.12-3.56ZM149.84-5.47L149.84-10.3Q142.91-10.03 140.95-8.91L140.95-8.91Q139.47-8.06 139.47-6.15L139.47-6.15Q139.47-3.39 141.59-2.76L141.59-2.76Q142.18-2.59 143.02-2.59 143.86-2.59 144.98-2.93 146.11-3.27 147.06-3.76L147.06-3.76Q148.86-4.64 149.84-5.47L149.84-5.47ZM162.85-2.59L162.85-20.36 159.73-20.92 159.73-22.95 166.81-24.73 166.81-18.51Q172.42-24.73 175.25-24.73L175.25-24.73Q177.57-24.73 179.53-22.88L179.53-22.88 178.26-18.92 177.11-18.92Q177.11-20.12 175.28-20.7L175.28-20.7Q174.77-20.85 174.25-20.85L174.25-20.85Q171.66-20.85 166.81-15.65L166.81-15.65 166.81-2.59 171.64-2.03 171.64 0 159.73 0 159.73-2.03 162.85-2.59ZM201.06-5.59L201.06-5.59 202.45-4Q198.57-0.51 194.93 0.37L194.93 0.37Q194.12 0.56 193.34 0.56L193.34 0.56Q187.97 0.56 184.6-2.83L184.6-2.83Q181.26-6.15 181.26-11.5L181.26-11.5Q181.26-16.82 184.41-20.61L184.41-20.61Q187.87-24.73 193.42-24.73L193.42-24.73Q197.25-24.73 199.88-21.97L199.88-21.97Q202.69-19.09 202.69-14.48L202.69-14.48 201.55-13.45 185.63-12.3Q185.68-7.86 188.51-5.2L188.51-5.2Q191.05-2.86 194.42-2.86 197.79-2.86 201.06-5.59ZM185.8-14.6L185.8-14.6 198.35-15.75Q198.18-19.8 195.22-21.31L195.22-21.31Q194.17-21.85 192.54-21.85 190.9-21.85 189.62-21.04 188.34-20.24 187.51-19.09L187.51-19.09Q185.92-16.92 185.8-14.6ZM241.31-15.09L240.58-17.65 231.59-17.65 231.59-2.93 245.19-2.93 246.95-7.25 248.81-7.25 248 0 223.29 0 223.29-2.08 227-2.64 227-34.18 223.29-34.74 223.29-36.82 246.93-36.82 247.49-29.57 245.34-29.57 244.02-33.86 231.59-33.86 231.59-20.58 240.58-20.58 241.31-23.17 243.04-23.17 243.04-15.09 241.31-15.09ZM266.89-21.56L266.89-21.56Q263.16-21.56 259.4-18.97L259.4-18.97 259.4-2.59 262.5-2.03 262.5 0 252.25 0 252.25-2.03 255.42-2.59 255.42-20.36 252.25-20.92 252.25-22.95 258.98-24.73 258.98-21.56Q263.92-24.73 268.14-24.73L268.14-24.73Q273.22-24.73 274.76-20.51L274.76-20.51Q275.27-19.09 275.27-17.19L275.27-17.19 275.27-2.59 278.37-2.03 278.37 0 268.14 0 268.14-2.03 271.29-2.59 271.29-16.72Q271.29-21.56 266.89-21.56ZM305.47-20.58L302.29-20.58Q303.44-18.73 303.44-15.97L303.44-15.97Q303.44-12.08 299.53-9.08L299.53-9.08Q297.82-7.76 295.53-6.88L295.53-6.88 291.79-5.47Q289.11-4.47 288.75-4.09 288.4-3.71 288.4-3.48 288.4-3.25 288.64-3.03 288.89-2.81 289.45-2.61L289.45-2.61Q290.79-2.15 293.21-2.15 295.63-2.15 297.73-1.89 299.83-1.64 301.44-0.93L301.44-0.93Q304.95 0.66 304.95 4.49L304.95 4.49Q304.95 7.08 302.93 9.3L302.93 9.3Q300.12 12.35 294.97 13.38L294.97 13.38Q293.43 13.67 291.57 13.67 289.72 13.67 287.79 13.28 285.86 12.89 284.42 12.06L284.42 12.06Q281.37 10.33 281.37 6.86L281.37 6.86Q281.37 4.17 283.64 2.73L283.64 2.73 285.23 1.78Q285.89 1.44 286.7 1.27 287.52 1.1 288.35 0.88L288.35 0.88Q285.71 0.37 284.71-1.22L284.71-1.22Q284.37-1.78 284.37-2.4 284.37-3.03 284.62-3.47 284.86-3.91 285.49-4.35 286.13-4.79 287.25-5.32L287.25-5.32 290.16-6.69Q287.86-7.13 285.86-8.81L285.86-8.81Q283.1-11.13 283.1-15.36L283.1-15.36Q283.1-19.41 286.67-22.22L286.67-22.22Q289.82-24.73 293.6-24.73 297.38-24.73 300.14-22.95L300.14-22.95Q301.9-24.17 305.95-24.68L305.95-24.68 306.61-23.93 305.47-20.58ZM285.79 5.46Q285.64 6.13 285.64 7.15 285.64 8.18 286.4 9.05 287.16 9.91 288.33 10.38L288.33 10.38Q290.23 11.13 292.64 11.13 295.04 11.13 296.31 10.74 297.58 10.35 298.53 9.62L298.53 9.62Q300.68 8.01 300.68 5.42L300.68 5.42Q300.68 2.17 296.09 1.76L296.09 1.76Q294.75 1.64 293.28 1.64L293.28 1.64Q289.08 1.64 286.62 4.1L286.62 4.1Q285.93 4.79 285.79 5.46ZM287.64-18.95L287.64-18.95Q287.13-17.75 287.13-16.03 287.13-14.31 287.64-13.04 288.16-11.77 289.04-10.89L289.04-10.89Q290.82-9.11 293.62-9.11L293.62-9.11Q297.29-9.11 298.85-12.18L298.85-12.18Q299.44-13.33 299.44-15.03 299.44-16.72 298.92-18.04 298.41-19.36 297.53-20.29L297.53-20.29Q295.7-22.22 292.94-22.22L292.94-22.22Q289.04-22.22 287.64-18.95ZM317.23-24.73L317.23-2.59 320.36-2.03 320.36 0 310.1 0 310.1-2.03 313.28-2.59 313.28-20.36 310.1-20.92 310.1-22.95 317.23-24.73ZM313.14-32.19Q312.74-32.62 312.49-33.15 312.25-33.69 312.25-34.22 312.25-34.74 312.49-35.27 312.74-35.79 313.13-36.23L313.13-36.23Q314.03-37.21 314.78-37.21 315.52-37.21 316.05-36.94 316.57-36.67 316.99-36.23L316.99-36.23Q317.89-35.23 317.89-34.46 317.89-33.69 317.63-33.15 317.38-32.62 316.99-32.18L316.99-32.18Q316.06-31.23 315.29-31.23 314.52-31.23 314.03-31.49 313.54-31.76 313.14-32.19ZM337.81-21.56L337.81-21.56Q334.07-21.56 330.31-18.97L330.31-18.97 330.31-2.59 333.41-2.03 333.41 0 323.16 0 323.16-2.03 326.33-2.59 326.33-20.36 323.16-20.92 323.16-22.95 329.9-24.73 329.9-21.56Q334.83-24.73 339.05-24.73L339.05-24.73Q344.13-24.73 345.67-20.51L345.67-20.51Q346.18-19.09 346.18-17.19L346.18-17.19 346.18-2.59 349.28-2.03 349.28 0 339.05 0 339.05-2.03 342.2-2.59 342.2-16.72Q342.2-21.56 337.81-21.56ZM372.13-5.59L372.13-5.59 373.52-4Q369.64-0.51 366.01 0.37L366.01 0.37Q365.2 0.56 364.42 0.56L364.42 0.56Q359.05 0.56 355.68-2.83L355.68-2.83Q352.33-6.15 352.33-11.5L352.33-11.5Q352.33-16.82 355.48-20.61L355.48-20.61Q358.95-24.73 364.49-24.73L364.49-24.73Q368.32-24.73 370.96-21.97L370.96-21.97Q373.77-19.09 373.77-14.48L373.77-14.48 372.62-13.45 356.7-12.3Q356.75-7.86 359.58-5.2L359.58-5.2Q362.12-2.86 365.49-2.86 368.86-2.86 372.13-5.59ZM356.87-14.6L356.87-14.6 369.42-15.75Q369.25-19.8 366.3-21.31L366.3-21.31Q365.25-21.85 363.61-21.85 361.98-21.85 360.69-21.04 359.41-20.24 358.58-19.09L358.58-19.09Q357-16.92 356.87-14.6ZM397.15-5.59L397.15-5.59 398.55-4Q394.66-0.51 391.03 0.37L391.03 0.37Q390.22 0.56 389.44 0.56L389.44 0.56Q384.07 0.56 380.7-2.83L380.7-2.83Q377.36-6.15 377.36-11.5L377.36-11.5Q377.36-16.82 380.5-20.61L380.5-20.61Q383.97-24.73 389.51-24.73L389.51-24.73Q393.35-24.73 395.98-21.97L395.98-21.97Q398.79-19.09 398.79-14.48L398.79-14.48 397.64-13.45 381.73-12.3Q381.77-7.86 384.61-5.2L384.61-5.2Q387.15-2.86 390.51-2.86 393.88-2.86 397.15-5.59ZM381.9-14.6L381.9-14.6 394.44-15.75Q394.27-19.8 391.32-21.31L391.32-21.31Q390.27-21.85 388.63-21.85 387-21.85 385.72-21.04 384.44-20.24 383.61-19.09L383.61-19.09Q382.02-16.92 381.9-14.6ZM404.79-2.59L404.79-20.36 401.67-20.92 401.67-22.95 408.75-24.73 408.75-18.51Q414.36-24.73 417.2-24.73L417.2-24.73Q419.52-24.73 421.47-22.88L421.47-22.88 420.2-18.92 419.05-18.92Q419.05-20.12 417.22-20.7L417.22-20.7Q416.71-20.85 416.2-20.85L416.2-20.85Q413.61-20.85 408.75-15.65L408.75-15.65 408.75-2.59 413.58-2.03 413.58 0 401.67 0 401.67-2.03 404.79-2.59Z" opacity="1" transform="matrix(1,0,0,1,0,0)" fill="black" class="slogan-text-1" id="SvgjsPath1841"></path></svg></g></svg></g></svg></g></svg></g><g></g></svg></g><defs><mask></mask></defs></svg><rect width="395.52" height="117.97571588806409" fill="black" stroke="none" visibility="hidden"></rect></g></mask></svg><rect width="395.52" height="117.97571588806409" fill="black" stroke="none" visibility="hidden"></rect></g></mask><linearGradient x1="0" x2="1" y1="0.578" y2="0.595" id="96ae5a81-69b6-4f58-b197-04b85f3ab6a9"><stop stop-color="#6ee2f5" offset="0"></stop><stop stop-color="#6454f0" offset="1"></stop></linearGradient></svg><rect width="395.52" height="117.97571588806409" fill="none" stroke="none" visibility="hidden"></rect></g></svg></g></svg>